<?xml version="1.0" standalone="no"?>
<!DOCTYPE svg PUBLIC "-//W3C//DTD SVG 20010904//EN"
 "http://www.w3.org/TR/2001/REC-SVG-20010904/DTD/svg10.dtd">
<svg version="1.0" xmlns="http://www.w3.org/2000/svg"
 width="1702.000000pt" height="444.000000pt" viewBox="0 0 1702.000000 444.000000"
 preserveAspectRatio="xMidYMid meet">

<g transform="translate(0.000000,444.000000) scale(0.100000,-0.100000)"
fill="#000000" stroke="none">
<path d="M6825 4433 c-477 -42 -1039 -235 -1611 -553 -503 -280 -888 -544
-1540 -1056 -533 -419 -693 -528 -939 -637 -241 -106 -415 -141 -700 -140
-315 1 -601 57 -1019 200 -246 84 -741 289 -945 392 -34 18 -65 31 -67 29 -4
-5 198 -276 306 -408 254 -313 669 -748 945 -989 994 -869 1998 -1299 2960
-1268 333 11 616 63 930 171 777 266 1519 844 2232 1736 337 422 711 990 1029
1563 54 97 101 177 104 177 3 0 50 -80 104 -177 480 -864 999 -1588 1521
-2122 212 -217 361 -353 540 -496 603 -480 1174 -739 1835 -832 174 -24 594
-24 770 0 849 117 1654 522 2485 1248 276 241 691 676 945 989 108 132 310
403 306 408 -2 2 -33 -11 -67 -29 -111 -56 -437 -198 -629 -274 -405 -161
-715 -251 -1038 -302 -151 -24 -461 -23 -597 1 -285 52 -551 173 -865 396 -97
69 -184 136 -674 519 -590 462 -1142 817 -1660 1066 -716 346 -1352 464 -1901
354 -393 -79 -760 -305 -989 -610 -41 -53 -76 -103 -80 -110 -5 -11 -7 -11
-12 -1 -15 33 -134 184 -193 246 -274 285 -641 458 -1073 505 -90 10 -320 12
-413 4z"/>
</g>
</svg>
