<?xml version="1.0" standalone="no"?>
<!DOCTYPE svg PUBLIC "-//W3C//DTD SVG 20010904//EN"
 "http://www.w3.org/TR/2001/REC-SVG-20010904/DTD/svg10.dtd">
<svg version="1.0" xmlns="http://www.w3.org/2000/svg"
 width="380.000000pt" height="603.000000pt" viewBox="0 0 380.000000 603.000000"
 preserveAspectRatio="xMidYMid meet">

<g transform="translate(0.000000,603.000000) scale(0.100000,-0.100000)"
fill="#000000" stroke="none">
<path d="M1715 6024 c-342 -48 -567 -117 -722 -220 -96 -64 -277 -234 -365
-343 -301 -373 -430 -775 -389 -1211 11 -110 51 -413 68 -510 l6 -35 -59 56
c-135 127 -185 118 -225 -41 -28 -109 -22 -232 14 -337 14 -40 44 -145 67
-235 83 -328 111 -399 179 -461 43 -39 89 -53 152 -44 l39 5 0 -41 c0 -62 28
-295 51 -427 39 -228 99 -410 169 -519 48 -74 48 -86 21 -311 -22 -170 -29
-197 -89 -316 l-40 -80 39 -68 c108 -186 299 -392 464 -501 189 -124 528 -296
692 -351 65 -21 91 -25 153 -21 257 16 744 298 1056 611 111 111 125 130 174
228 l53 107 -21 48 c-56 131 -73 220 -85 436 l-11 208 38 75 c83 167 146 425
176 729 6 61 13 128 16 150 l4 40 53 -3 c102 -6 181 63 226 200 12 35 39 141
61 236 22 96 56 225 75 288 43 141 47 246 14 364 -23 85 -41 110 -78 110 -33
0 -61 -18 -127 -82 l-51 -50 13 78 c36 204 66 496 67 629 0 358 -124 684 -383
1009 -136 171 -354 363 -490 431 -118 59 -315 117 -510 151 -90 15 -427 28
-495 18z"/>
</g>
</svg>
