<?xml version="1.0" standalone="no"?>
<!DOCTYPE svg PUBLIC "-//W3C//DTD SVG 20010904//EN"
 "http://www.w3.org/TR/2001/REC-SVG-20010904/DTD/svg10.dtd">
<svg version="1.0" xmlns="http://www.w3.org/2000/svg"
 width="1703.000000pt" height="1569.000000pt" viewBox="0 0 1703.000000 1569.000000"
 preserveAspectRatio="xMidYMid meet">

<g transform="translate(0.000000,1569.000000) scale(0.100000,-0.100000)"
fill="#000000" stroke="none">
<path d="M4452 15628 c-94 -123 -274 -277 -572 -492 -492 -355 -723 -541 -927
-744 -406 -404 -642 -815 -763 -1327 l-29 -120 0 75 c-3 318 67 733 165 983
194 493 504 804 1109 1115 85 43 142 78 133 80 -10 2 -82 -8 -160 -23 -1016
-185 -1761 -717 -2188 -1560 -339 -668 -455 -1558 -304 -2315 14 -69 27 -136
30 -150 7 -34 -79 132 -132 255 -213 501 -258 957 -137 1395 34 126 95 280
163 417 62 123 62 122 -62 17 -302 -258 -523 -660 -633 -1149 -75 -335 -145
-955 -145 -1283 0 -665 182 -1416 505 -2088 45 -94 157 -316 250 -494 152
-293 167 -325 154 -344 -88 -139 -136 -249 -185 -426 -220 -792 -154 -2335
182 -4278 l45 -262 55 -52 c234 -221 636 -921 891 -1553 88 -217 129 -339 229
-677 79 -269 175 -564 195 -598 11 -20 11 69 -1 325 -5 116 -14 311 -20 435
-6 124 -15 317 -20 430 -6 113 -19 396 -30 630 -11 234 -24 520 -30 635 -5
116 -14 307 -20 425 -5 118 -15 328 -22 465 -17 327 -16 1101 0 1310 55 694
138 1099 286 1392 19 39 40 74 45 77 5 4 74 -27 153 -68 257 -134 508 -225
883 -319 580 -147 760 -171 1280 -172 377 0 462 5 755 46 791 110 1728 405
2760 869 312 140 707 309 1070 457 233 95 673 241 1050 348 747 212 1599 372
2480 465 339 35 349 36 763 70 415 34 512 42 597 51 52 6 117 15 144 20 27 5
50 9 52 9 2 0 4 -17 4 -37 0 -69 38 -405 65 -578 82 -526 202 -968 402 -1475
202 -511 308 -935 365 -1455 10 -95 13 -535 13 -2110 0 -1094 -3 -2046 -7
-2115 l-7 -125 50 180 c289 1054 749 2012 1279 2666 25 30 34 86 70 432 25
241 30 289 40 392 5 61 14 155 19 210 15 155 38 407 61 665 11 129 25 282 30
340 14 144 65 778 90 1100 11 146 24 324 30 395 32 405 39 817 20 1140 -49
835 -241 1497 -581 2010 -111 166 -218 294 -367 437 l-119 113 -12 175 c-33
462 -142 850 -371 1315 -520 1057 -1508 2027 -2646 2598 -1450 727 -3273 928
-5499 606 -136 -19 -496 -79 -720 -118 -481 -85 -917 -92 -1267 -20 -555 114
-892 447 -935 923 l-8 89 -43 -55z"/>
</g>
</svg>
