<?xml version="1.0" standalone="no"?>
<!DOCTYPE svg PUBLIC "-//W3C//DTD SVG 20010904//EN"
 "http://www.w3.org/TR/2001/REC-SVG-20010904/DTD/svg10.dtd">
<svg version="1.0" xmlns="http://www.w3.org/2000/svg"
 width="415.000000pt" height="707.000000pt" viewBox="0 0 415.000000 707.000000"
 preserveAspectRatio="xMidYMid meet">

<g transform="translate(0.000000,707.000000) scale(0.100000,-0.100000)"
fill="#000000" stroke="none">
<path d="M1950 7054 c-605 -83 -1067 -298 -1431 -664 -225 -228 -419 -555
-498 -839 l-19 -69 453 -973 453 -974 162 -3 c151 -2 161 -1 156 15 -3 10 -85
281 -181 603 -134 446 -175 593 -171 620 8 50 55 90 106 90 29 0 48 -7 70 -27
27 -25 47 -86 222 -665 l191 -638 64 0 65 0 -6 28 c-3 15 -44 338 -92 718 -77
605 -86 695 -75 722 35 83 154 88 195 8 11 -21 46 -263 106 -741 50 -391 90
-716 90 -723 0 -8 23 -12 75 -12 l75 0 2 774 c3 770 3 775 24 803 12 15 37 34
57 42 32 12 40 11 74 -5 77 -38 73 6 73 -851 l0 -763 75 0 c52 0 75 4 75 12 0
7 40 332 90 723 60 478 95 720 106 741 41 80 160 75 195 -8 11 -27 2 -117 -75
-722 -48 -380 -89 -703 -92 -718 l-6 -28 65 0 64 0 191 638 c175 579 195 640
222 665 62 56 164 20 176 -63 4 -27 -37 -174 -171 -620 -96 -322 -178 -593
-181 -603 -5 -16 5 -17 156 -15 l162 3 450 965 c247 531 450 977 449 992 0 47
-77 261 -139 384 -134 267 -321 500 -542 677 -313 251 -740 427 -1190 491
-171 24 -210 25 -320 10z"/>
<path d="M950 2805 l0 -505 1125 0 1125 0 0 505 0 505 -1125 0 -1125 0 0 -505z"/>
<path d="M952 1388 l3 -683 28 -90 c92 -294 307 -504 603 -587 76 -22 95 -22
489 -22 394 0 413 0 489 22 296 83 511 293 603 587 l28 90 3 683 3 682 -1126
0 -1126 0 3 -682z"/>
</g>
</svg>
