<svg id="svg" version="1.1" xmlns="http://www.w3.org/2000/svg" xmlns:xlink="http://www.w3.org/1999/xlink" width="400" height="400" viewBox="0, 0, 400,400"><g id="svgg"><path id="path0" d="M189.600 18.000 C 189.600 18.220,188.700 18.400,187.600 18.400 C 186.500 18.400,185.600 18.580,185.600 18.800 C 185.600 19.020,184.801 19.200,183.824 19.200 C 182.847 19.200,181.936 19.380,181.800 19.600 C 181.664 19.820,181.124 20.000,180.600 20.000 C 180.076 20.000,179.536 20.180,179.400 20.400 C 179.264 20.620,178.713 20.800,178.176 20.800 C 177.639 20.800,177.200 20.980,177.200 21.200 C 177.200 21.420,176.660 21.600,176.000 21.600 C 175.340 21.600,174.799 21.735,174.797 21.900 C 174.793 22.259,172.856 23.200,172.120 23.200 C 171.834 23.200,171.600 23.380,171.600 23.600 C 171.600 23.820,171.240 24.000,170.800 24.000 C 170.360 24.000,170.000 24.180,170.000 24.400 C 170.000 24.620,169.640 24.800,169.200 24.800 C 168.760 24.800,168.400 24.980,168.400 25.200 C 168.400 25.420,168.040 25.600,167.600 25.600 C 167.160 25.600,166.800 25.780,166.800 26.000 C 166.800 26.220,166.440 26.400,166.000 26.400 C 165.560 26.400,165.200 26.551,165.200 26.736 C 165.200 26.920,164.713 27.294,164.117 27.565 C 163.522 27.836,162.783 28.417,162.476 28.856 C 162.168 29.295,161.694 29.568,161.421 29.463 C 161.148 29.358,160.676 29.616,160.374 30.036 C 160.071 30.456,159.583 30.800,159.290 30.800 C 158.996 30.800,157.696 31.880,156.400 33.200 C 155.104 34.520,153.841 35.600,153.594 35.600 C 153.009 35.600,152.000 36.612,152.000 37.198 C 152.000 37.449,150.936 38.708,149.636 39.996 C 148.336 41.284,147.376 42.442,147.503 42.569 C 147.629 42.696,147.433 42.800,147.067 42.800 C 146.700 42.800,146.400 43.089,146.400 43.442 C 146.400 43.998,145.931 44.708,143.994 47.083 C 143.777 47.349,143.600 47.804,143.600 48.095 C 143.600 48.386,143.240 48.883,142.800 49.200 C 142.360 49.517,142.000 50.097,142.000 50.488 C 142.000 50.880,141.820 51.200,141.600 51.200 C 141.380 51.200,141.200 51.520,141.200 51.912 C 141.200 52.303,140.840 52.883,140.400 53.200 C 139.960 53.517,139.600 54.009,139.600 54.294 C 139.600 54.922,138.847 56.279,137.900 57.355 C 137.515 57.793,137.200 58.387,137.200 58.675 C 137.200 58.964,137.020 59.200,136.800 59.200 C 136.580 59.200,136.400 59.560,136.400 60.000 C 136.400 60.440,136.220 60.800,136.000 60.800 C 135.780 60.800,135.600 61.160,135.600 61.600 C 135.600 62.040,135.416 62.400,135.191 62.400 C 134.967 62.400,134.565 62.895,134.300 63.500 C 134.034 64.105,133.713 64.690,133.587 64.800 C 133.461 64.910,133.048 65.667,132.668 66.483 C 132.289 67.299,131.803 68.075,131.588 68.207 C 131.106 68.506,129.409 72.076,129.533 72.534 C 129.582 72.717,129.181 73.214,128.642 73.638 C 128.103 74.063,127.546 74.935,127.405 75.577 C 127.264 76.219,126.894 76.956,126.583 77.214 C 125.892 77.787,124.800 79.914,124.800 80.685 C 124.800 80.994,124.620 81.136,124.400 81.000 C 124.180 80.864,124.000 81.122,124.000 81.573 C 124.000 82.024,123.640 82.618,123.200 82.893 C 122.760 83.168,122.400 83.709,122.400 84.096 C 122.400 84.483,122.220 84.800,122.000 84.800 C 121.780 84.800,121.600 85.160,121.600 85.600 C 121.600 86.040,121.420 86.400,121.200 86.400 C 120.980 86.400,120.800 86.732,120.800 87.138 C 120.800 87.544,120.440 88.202,120.000 88.600 C 119.560 88.998,119.200 89.566,119.200 89.862 C 119.200 90.158,119.020 90.400,118.800 90.400 C 118.580 90.400,118.400 90.760,118.400 91.200 C 118.400 91.640,118.220 92.000,118.000 92.000 C 117.780 92.000,117.600 92.294,117.600 92.653 C 117.600 93.012,117.276 93.597,116.880 93.953 C 116.483 94.309,115.857 95.250,115.487 96.045 C 115.117 96.840,114.552 97.708,114.231 97.974 C 113.910 98.241,113.746 98.715,113.867 99.029 C 113.987 99.343,113.895 99.600,113.662 99.600 C 113.428 99.600,112.889 100.387,112.464 101.348 C 112.039 102.310,111.490 103.221,111.245 103.372 C 111.000 103.523,110.800 103.997,110.800 104.424 C 110.800 104.851,110.620 105.200,110.400 105.200 C 110.180 105.200,110.000 105.560,110.000 106.000 C 110.000 106.440,109.820 106.800,109.600 106.800 C 109.380 106.800,109.200 107.120,109.200 107.512 C 109.200 107.903,108.840 108.483,108.400 108.800 C 107.960 109.117,107.600 109.697,107.600 110.088 C 107.600 110.480,107.454 110.800,107.275 110.800 C 107.096 110.800,106.701 111.434,106.397 112.209 C 106.093 112.983,105.519 113.911,105.122 114.271 C 104.725 114.630,104.400 115.166,104.400 115.462 C 104.400 115.758,104.220 116.000,104.000 116.000 C 103.780 116.000,103.600 116.320,103.600 116.712 C 103.600 117.103,103.240 117.683,102.800 118.000 C 102.360 118.317,102.000 118.771,102.000 119.009 C 102.000 119.675,101.037 121.593,100.700 121.597 C 100.535 121.599,100.400 121.920,100.400 122.312 C 100.400 122.703,100.040 123.283,99.600 123.600 C 99.160 123.917,98.800 124.497,98.800 124.888 C 98.800 125.280,98.620 125.600,98.400 125.600 C 98.180 125.600,98.000 125.960,98.000 126.400 C 98.000 126.840,97.820 127.200,97.600 127.200 C 97.380 127.200,97.200 127.541,97.200 127.957 C 97.200 128.374,96.943 128.813,96.629 128.933 C 96.039 129.160,94.400 132.481,94.400 133.451 C 94.400 133.753,94.241 134.000,94.047 134.000 C 93.853 134.000,93.203 135.003,92.603 136.229 C 92.003 137.455,91.262 138.555,90.956 138.672 C 90.650 138.790,90.400 139.226,90.400 139.643 C 90.400 140.059,90.220 140.400,90.000 140.400 C 89.780 140.400,89.600 140.760,89.600 141.200 C 89.600 141.640,89.420 142.000,89.200 142.000 C 88.980 142.000,88.800 142.294,88.800 142.653 C 88.800 143.012,88.477 143.597,88.081 143.953 C 87.686 144.309,86.865 145.632,86.256 146.892 C 85.647 148.153,84.985 149.286,84.785 149.409 C 84.585 149.533,84.108 150.301,83.726 151.117 C 83.343 151.933,82.804 152.832,82.528 153.116 C 82.252 153.399,81.482 154.770,80.818 156.163 C 80.153 157.555,79.329 158.927,78.987 159.211 C 78.644 159.495,78.450 159.954,78.557 160.231 C 78.663 160.508,78.508 160.827,78.212 160.940 C 77.917 161.053,77.562 161.663,77.423 162.295 C 77.284 162.927,76.817 163.699,76.385 164.011 C 75.953 164.322,75.600 164.897,75.600 165.288 C 75.600 165.680,75.420 166.000,75.200 166.000 C 74.980 166.000,74.800 166.360,74.800 166.800 C 74.800 167.240,74.620 167.600,74.400 167.600 C 74.180 167.600,74.000 167.920,74.000 168.312 C 74.000 168.703,73.640 169.283,73.200 169.600 C 72.760 169.917,72.400 170.497,72.400 170.888 C 72.400 171.280,72.220 171.600,72.000 171.600 C 71.780 171.600,71.600 171.958,71.600 172.397 C 71.600 172.835,71.240 173.418,70.800 173.693 C 70.360 173.968,70.000 174.509,70.000 174.896 C 70.000 175.283,69.820 175.600,69.600 175.600 C 69.380 175.600,69.200 175.960,69.200 176.400 C 69.200 176.840,69.020 177.200,68.800 177.200 C 68.580 177.200,68.400 177.448,68.400 177.751 C 68.400 178.054,68.144 178.515,67.830 178.775 C 67.517 179.035,66.706 180.397,66.029 181.801 C 65.352 183.205,64.618 184.465,64.399 184.601 C 64.180 184.736,64.000 185.197,64.000 185.624 C 64.000 186.051,63.852 186.400,63.671 186.400 C 63.490 186.400,62.939 187.206,62.447 188.191 C 61.955 189.176,61.384 190.087,61.176 190.215 C 60.969 190.343,60.800 190.797,60.800 191.224 C 60.800 191.651,60.620 192.000,60.400 192.000 C 60.180 192.000,60.000 192.248,60.000 192.551 C 60.000 192.854,59.734 193.323,59.409 193.592 C 59.084 193.862,58.326 195.099,57.724 196.341 C 57.122 197.584,56.488 198.660,56.315 198.733 C 56.142 198.807,56.000 199.132,56.000 199.457 C 56.000 199.782,55.820 199.936,55.600 199.800 C 55.380 199.664,55.200 199.923,55.200 200.376 C 55.200 200.829,55.020 201.200,54.800 201.200 C 54.580 201.200,54.400 201.560,54.400 202.000 C 54.400 202.440,54.220 202.800,54.000 202.800 C 53.780 202.800,53.600 203.120,53.600 203.512 C 53.600 203.903,53.240 204.483,52.800 204.800 C 52.360 205.117,52.000 205.697,52.000 206.088 C 52.000 206.480,51.820 206.800,51.600 206.800 C 51.380 206.800,51.200 207.160,51.200 207.600 C 51.200 208.040,51.020 208.400,50.800 208.400 C 50.580 208.400,50.400 208.750,50.400 209.177 C 50.400 209.605,50.077 210.190,49.682 210.477 C 49.287 210.765,48.652 211.667,48.271 212.483 C 47.890 213.299,47.409 214.071,47.202 214.199 C 46.995 214.326,46.253 215.639,45.552 217.116 C 44.852 218.592,44.126 219.860,43.939 219.933 C 43.753 220.007,43.600 220.412,43.600 220.833 C 43.600 221.255,43.420 221.600,43.200 221.600 C 42.980 221.600,42.800 221.960,42.800 222.400 C 42.800 222.840,42.620 223.200,42.400 223.200 C 42.180 223.200,42.000 223.520,42.000 223.912 C 42.000 224.303,41.640 224.883,41.200 225.200 C 40.760 225.517,40.400 226.097,40.400 226.488 C 40.400 226.880,40.220 227.200,40.000 227.200 C 39.780 227.200,39.600 227.442,39.600 227.738 C 39.600 228.034,39.275 228.570,38.878 228.929 C 38.481 229.289,37.907 230.217,37.603 230.991 C 37.299 231.766,36.904 232.400,36.725 232.400 C 36.546 232.400,36.400 232.720,36.400 233.112 C 36.400 233.503,36.040 234.083,35.600 234.400 C 35.160 234.717,34.800 235.297,34.800 235.688 C 34.800 236.080,34.620 236.400,34.400 236.400 C 34.180 236.400,34.000 236.760,34.000 237.200 C 34.000 237.640,33.820 238.000,33.600 238.000 C 33.380 238.000,33.200 238.358,33.200 238.797 C 33.200 239.235,32.840 239.818,32.400 240.093 C 31.960 240.368,31.600 240.909,31.600 241.296 C 31.600 241.683,31.420 242.000,31.200 242.000 C 30.980 242.000,30.800 242.360,30.800 242.800 C 30.800 243.240,30.620 243.600,30.400 243.600 C 30.180 243.600,30.000 243.895,30.000 244.256 C 30.000 244.617,29.753 245.112,29.451 245.356 C 29.149 245.600,28.295 246.970,27.554 248.400 C 26.813 249.830,26.070 251.060,25.903 251.133 C 25.737 251.207,25.600 251.612,25.600 252.033 C 25.600 252.455,25.420 252.800,25.200 252.800 C 24.980 252.800,24.800 253.120,24.800 253.512 C 24.800 253.903,24.440 254.483,24.000 254.800 C 23.560 255.117,23.200 255.697,23.200 256.088 C 23.200 256.480,23.020 256.800,22.800 256.800 C 22.580 256.800,22.400 257.160,22.400 257.600 C 22.400 258.040,22.220 258.400,22.000 258.400 C 21.780 258.400,21.600 258.694,21.600 259.053 C 21.600 259.412,21.276 259.997,20.880 260.353 C 20.485 260.709,19.685 262.018,19.103 263.262 C 18.522 264.506,17.855 265.642,17.622 265.786 C 17.389 265.931,16.847 266.818,16.419 267.759 C 15.990 268.700,15.365 269.697,15.030 269.975 C 14.695 270.253,14.309 271.080,14.171 271.812 C 14.034 272.545,13.669 273.241,13.361 273.360 C 13.052 273.478,12.800 273.823,12.800 274.125 C 12.800 274.428,12.444 274.999,12.008 275.393 C 11.572 275.787,11.102 276.715,10.963 277.455 C 10.825 278.195,10.551 278.800,10.355 278.800 C 10.160 278.800,10.000 279.070,10.000 279.400 C 10.000 279.730,9.820 280.000,9.600 280.000 C 9.380 280.000,9.200 280.281,9.200 280.624 C 9.200 280.967,9.020 281.136,8.800 281.000 C 8.580 280.864,8.400 281.123,8.400 281.576 C 8.400 282.029,8.220 282.400,8.000 282.400 C 7.780 282.400,7.600 282.760,7.600 283.200 C 7.600 283.640,7.420 284.000,7.200 284.000 C 6.980 284.000,6.800 284.234,6.800 284.520 C 6.800 285.256,5.859 287.193,5.500 287.197 C 5.335 287.199,5.200 287.560,5.200 288.000 C 5.200 288.440,5.020 288.800,4.800 288.800 C 4.580 288.800,4.400 289.329,4.400 289.976 C 4.400 290.623,4.220 291.264,4.000 291.400 C 3.780 291.536,3.600 292.087,3.600 292.624 C 3.600 293.161,3.420 293.600,3.200 293.600 C 2.980 293.600,2.800 294.039,2.800 294.576 C 2.800 295.113,2.620 295.664,2.400 295.800 C 2.180 295.936,2.000 296.476,2.000 297.000 C 2.000 297.524,1.820 298.064,1.600 298.200 C 1.380 298.336,1.200 299.052,1.200 299.790 C 1.200 300.529,0.975 301.208,0.700 301.300 C 0.313 301.429,0.200 304.649,0.200 315.600 C 0.200 326.551,0.313 329.771,0.700 329.900 C 0.998 329.999,1.200 330.771,1.200 331.810 C 1.200 332.768,1.380 333.664,1.600 333.800 C 1.820 333.936,2.000 334.476,2.000 335.000 C 2.000 335.524,2.180 336.064,2.400 336.200 C 2.620 336.336,2.800 336.876,2.800 337.400 C 2.800 337.924,2.980 338.464,3.200 338.600 C 3.420 338.736,3.600 339.287,3.600 339.824 C 3.600 340.361,3.780 340.800,4.000 340.800 C 4.220 340.800,4.400 341.160,4.400 341.600 C 4.400 342.040,4.580 342.400,4.800 342.400 C 5.020 342.400,5.200 342.760,5.200 343.200 C 5.200 343.640,5.380 344.000,5.600 344.000 C 5.820 344.000,6.000 344.360,6.000 344.800 C 6.000 345.240,6.180 345.600,6.400 345.600 C 6.620 345.600,6.800 345.960,6.800 346.400 C 6.800 346.840,6.980 347.200,7.200 347.200 C 7.420 347.200,7.600 347.560,7.600 348.000 C 7.600 348.440,7.780 348.800,8.000 348.800 C 8.220 348.800,8.400 349.120,8.400 349.512 C 8.400 349.903,8.760 350.483,9.200 350.800 C 9.640 351.117,10.000 351.614,10.000 351.905 C 10.000 352.196,10.177 352.651,10.394 352.917 C 12.249 355.192,12.800 355.972,12.800 356.323 C 12.800 356.547,13.880 357.827,15.200 359.168 C 16.520 360.508,17.600 361.792,17.600 362.021 C 17.600 362.560,19.440 364.400,19.979 364.400 C 20.208 364.400,21.492 365.480,22.832 366.800 C 24.173 368.120,25.524 369.200,25.835 369.200 C 26.146 369.200,26.400 369.359,26.400 369.554 C 26.400 369.749,27.030 370.208,27.800 370.573 C 28.570 370.939,29.200 371.387,29.200 371.570 C 29.200 371.753,29.740 372.127,30.400 372.400 C 31.060 372.673,31.600 373.055,31.600 373.249 C 31.600 373.442,31.960 373.600,32.400 373.600 C 32.840 373.600,33.200 373.780,33.200 374.000 C 33.200 374.220,33.560 374.400,34.000 374.400 C 34.440 374.400,34.800 374.580,34.800 374.800 C 34.800 375.020,35.160 375.200,35.600 375.200 C 36.040 375.200,36.400 375.380,36.400 375.600 C 36.400 375.820,36.760 376.000,37.200 376.000 C 37.640 376.000,38.000 376.180,38.000 376.400 C 38.000 376.620,38.360 376.800,38.800 376.800 C 39.240 376.800,39.600 376.980,39.600 377.200 C 39.600 377.420,39.960 377.600,40.400 377.600 C 40.840 377.600,41.200 377.780,41.200 378.000 C 41.200 378.220,41.740 378.400,42.400 378.400 C 43.060 378.400,43.600 378.580,43.600 378.800 C 43.600 379.020,44.039 379.200,44.576 379.200 C 45.113 379.200,45.664 379.380,45.800 379.600 C 45.936 379.820,46.476 380.000,47.000 380.000 C 47.524 380.000,48.064 380.180,48.200 380.400 C 48.336 380.620,49.247 380.800,50.224 380.800 C 51.201 380.800,52.000 380.980,52.000 381.200 C 52.000 381.420,52.900 381.600,54.000 381.600 C 55.100 381.600,56.000 381.780,56.000 382.000 C 56.000 382.266,104.267 382.400,200.000 382.400 C 295.733 382.400,344.000 382.266,344.000 382.000 C 344.000 381.778,345.067 381.600,346.400 381.600 C 347.733 381.600,348.800 381.422,348.800 381.200 C 348.800 380.980,349.419 380.800,350.176 380.800 C 350.933 380.800,351.664 380.620,351.800 380.400 C 351.936 380.180,352.476 380.000,353.000 380.000 C 353.524 380.000,354.064 379.820,354.200 379.600 C 354.336 379.380,354.887 379.200,355.424 379.200 C 355.961 379.200,356.400 379.020,356.400 378.800 C 356.400 378.580,356.940 378.400,357.600 378.400 C 358.260 378.400,358.800 378.220,358.800 378.000 C 358.800 377.780,359.160 377.600,359.600 377.600 C 360.040 377.600,360.400 377.420,360.400 377.200 C 360.400 376.980,360.760 376.800,361.200 376.800 C 361.640 376.800,362.000 376.620,362.000 376.400 C 362.000 376.180,362.360 376.000,362.800 376.000 C 363.240 376.000,363.600 375.820,363.600 375.600 C 363.600 375.380,363.960 375.200,364.400 375.200 C 364.840 375.200,365.200 375.020,365.200 374.800 C 365.200 374.580,365.560 374.400,366.000 374.400 C 366.440 374.400,366.800 374.220,366.800 374.000 C 366.800 373.780,367.160 373.600,367.600 373.600 C 368.040 373.600,368.400 373.420,368.400 373.200 C 368.400 372.980,368.760 372.800,369.200 372.800 C 369.640 372.800,370.000 372.632,370.000 372.427 C 370.000 372.222,370.315 371.952,370.700 371.828 C 371.085 371.704,371.975 371.062,372.678 370.401 C 373.381 369.740,374.107 369.200,374.291 369.200 C 374.475 369.200,375.569 368.300,376.722 367.200 C 377.875 366.100,378.959 365.200,379.130 365.200 C 379.599 365.200,383.200 361.608,383.200 361.140 C 383.200 360.917,384.100 359.829,385.200 358.724 C 386.300 357.618,387.200 356.494,387.200 356.226 C 387.200 355.959,387.650 355.317,388.200 354.800 C 388.750 354.283,389.200 353.662,389.200 353.419 C 389.200 353.175,389.560 352.717,390.000 352.400 C 390.440 352.083,390.800 351.503,390.800 351.112 C 390.800 350.720,390.980 350.400,391.200 350.400 C 391.420 350.400,391.600 350.040,391.600 349.600 C 391.600 349.160,391.780 348.800,392.000 348.800 C 392.220 348.800,392.400 348.440,392.400 348.000 C 392.400 347.560,392.580 347.200,392.800 347.200 C 393.020 347.200,393.200 346.840,393.200 346.400 C 393.200 345.960,393.380 345.600,393.600 345.600 C 393.820 345.600,394.000 345.240,394.000 344.800 C 394.000 344.360,394.180 344.000,394.400 344.000 C 394.620 344.000,394.800 343.640,394.800 343.200 C 394.800 342.760,394.980 342.400,395.200 342.400 C 395.420 342.400,395.600 342.040,395.600 341.600 C 395.600 341.160,395.780 340.800,396.000 340.800 C 396.220 340.800,396.400 340.361,396.400 339.824 C 396.400 339.287,396.580 338.736,396.800 338.600 C 397.020 338.464,397.200 337.924,397.200 337.400 C 397.200 336.876,397.380 336.336,397.600 336.200 C 397.820 336.064,398.000 335.524,398.000 335.000 C 398.000 334.476,398.180 333.936,398.400 333.800 C 398.620 333.664,398.800 332.948,398.800 332.210 C 398.800 331.471,399.025 330.792,399.300 330.700 C 399.687 330.571,399.800 327.409,399.800 316.687 C 399.800 306.144,399.681 302.722,399.300 302.341 C 399.025 302.065,398.800 301.077,398.800 300.144 C 398.800 299.211,398.620 298.336,398.400 298.200 C 398.180 298.064,398.000 297.459,398.000 296.856 C 398.000 295.660,397.180 293.608,396.700 293.603 C 396.535 293.601,396.400 293.060,396.400 292.400 C 396.400 291.740,396.220 291.200,396.000 291.200 C 395.780 291.200,395.600 290.840,395.600 290.400 C 395.600 289.960,395.420 289.600,395.200 289.600 C 394.980 289.600,394.800 289.060,394.800 288.400 C 394.800 287.740,394.620 287.200,394.400 287.200 C 394.180 287.200,394.000 286.840,394.000 286.400 C 394.000 285.960,393.820 285.600,393.600 285.600 C 393.380 285.600,393.200 285.240,393.200 284.800 C 393.200 284.360,393.020 284.000,392.800 284.000 C 392.580 284.000,392.400 283.680,392.400 283.288 C 392.400 282.897,392.040 282.317,391.600 282.000 C 391.160 281.683,390.800 281.103,390.800 280.712 C 390.800 280.320,390.663 280.000,390.495 280.000 C 390.171 280.000,390.124 279.920,388.087 275.852 C 387.365 274.411,386.606 273.127,386.400 273.000 C 386.194 272.873,385.474 271.613,384.800 270.200 C 384.126 268.787,383.406 267.527,383.200 267.400 C 382.994 267.273,382.282 266.030,381.618 264.637 C 380.953 263.245,380.138 261.880,379.805 261.604 C 379.472 261.328,379.200 260.854,379.200 260.551 C 379.200 260.248,379.020 260.000,378.800 260.000 C 378.580 260.000,378.400 259.680,378.400 259.288 C 378.400 258.897,378.040 258.317,377.600 258.000 C 377.160 257.683,376.800 257.103,376.800 256.712 C 376.800 256.320,376.620 256.000,376.400 256.000 C 376.180 256.000,376.000 255.640,376.000 255.200 C 376.000 254.760,375.820 254.400,375.600 254.400 C 375.380 254.400,375.200 254.080,375.200 253.688 C 375.200 253.297,374.840 252.717,374.400 252.400 C 373.960 252.083,373.600 251.503,373.600 251.112 C 373.600 250.720,373.443 250.400,373.250 250.400 C 373.058 250.400,372.801 249.903,372.679 249.295 C 372.557 248.687,372.085 247.759,371.629 247.233 C 371.173 246.708,370.800 246.035,370.800 245.739 C 370.800 245.442,370.620 245.200,370.400 245.200 C 370.180 245.200,370.000 244.840,370.000 244.400 C 370.000 243.960,369.820 243.600,369.600 243.600 C 369.380 243.600,369.200 243.280,369.200 242.888 C 369.200 242.497,368.840 241.917,368.400 241.600 C 367.960 241.283,367.600 240.703,367.600 240.312 C 367.600 239.920,367.420 239.600,367.200 239.600 C 366.980 239.600,366.800 239.280,366.800 238.888 C 366.800 238.497,366.440 237.917,366.000 237.600 C 365.560 237.283,365.200 236.703,365.200 236.312 C 365.200 235.920,365.065 235.599,364.900 235.597 C 364.535 235.593,363.600 233.651,363.600 232.897 C 363.600 232.598,363.436 232.454,363.235 232.579 C 363.034 232.703,362.630 232.264,362.337 231.602 C 362.044 230.941,361.669 230.400,361.502 230.400 C 361.336 230.400,361.200 230.128,361.200 229.795 C 361.200 229.023,360.401 227.596,359.500 226.757 C 359.115 226.399,358.800 225.812,358.800 225.453 C 358.800 225.094,358.620 224.800,358.400 224.800 C 358.180 224.800,358.000 224.440,358.000 224.000 C 358.000 223.560,357.820 223.200,357.600 223.200 C 357.380 223.200,357.200 222.906,357.200 222.547 C 357.200 222.188,356.864 221.603,356.454 221.247 C 356.043 220.891,355.582 220.027,355.428 219.327 C 355.274 218.628,354.888 217.839,354.569 217.575 C 354.251 217.310,353.446 215.953,352.780 214.558 C 352.115 213.164,351.352 211.883,351.085 211.712 C 350.442 211.299,349.600 209.764,349.600 209.005 C 349.600 208.672,349.420 208.400,349.200 208.400 C 348.980 208.400,348.800 208.080,348.800 207.688 C 348.800 207.297,348.440 206.717,348.000 206.400 C 347.560 206.083,347.200 205.503,347.200 205.112 C 347.200 204.720,347.020 204.400,346.800 204.400 C 346.580 204.400,346.400 204.040,346.400 203.600 C 346.400 203.160,346.220 202.800,346.000 202.800 C 345.780 202.800,345.600 202.564,345.600 202.275 C 345.600 201.987,345.240 201.364,344.800 200.892 C 344.360 200.420,344.000 199.756,344.000 199.417 C 344.000 199.078,343.820 198.800,343.600 198.800 C 343.380 198.800,343.200 198.459,343.200 198.043 C 343.200 197.626,342.950 197.190,342.644 197.072 C 342.338 196.955,341.581 195.810,340.963 194.529 C 340.344 193.248,339.721 192.110,339.579 192.000 C 339.437 191.890,338.748 190.592,338.048 189.116 C 337.347 187.639,336.599 186.323,336.386 186.191 C 336.173 186.059,335.647 185.182,335.219 184.241 C 334.790 183.300,334.161 182.299,333.820 182.016 C 333.479 181.734,333.200 181.254,333.200 180.951 C 333.200 180.648,333.020 180.400,332.800 180.400 C 332.580 180.400,332.400 180.040,332.400 179.600 C 332.400 179.160,332.220 178.800,332.000 178.800 C 331.780 178.800,331.600 178.480,331.600 178.088 C 331.600 177.697,331.240 177.117,330.800 176.800 C 330.360 176.483,330.000 175.903,330.000 175.512 C 330.000 175.120,329.820 174.800,329.600 174.800 C 329.380 174.800,329.200 174.440,329.200 174.000 C 329.200 173.560,329.020 173.200,328.800 173.200 C 328.580 173.200,328.400 172.880,328.400 172.488 C 328.400 172.097,328.040 171.517,327.600 171.200 C 327.160 170.883,326.800 170.303,326.800 169.912 C 326.800 169.520,326.620 169.200,326.400 169.200 C 326.180 169.200,326.000 168.840,326.000 168.400 C 326.000 167.960,325.820 167.600,325.600 167.600 C 325.380 167.600,325.200 167.280,325.200 166.888 C 325.200 166.497,324.840 165.917,324.400 165.600 C 323.960 165.283,323.600 164.703,323.600 164.312 C 323.600 163.920,323.463 163.600,323.295 163.600 C 323.127 163.600,322.812 163.250,322.595 162.822 C 319.895 157.499,319.050 156.000,318.752 156.000 C 318.559 156.000,318.400 155.640,318.400 155.200 C 318.400 154.760,318.220 154.400,318.000 154.400 C 317.780 154.400,317.600 154.040,317.600 153.600 C 317.600 153.160,317.420 152.800,317.200 152.800 C 316.980 152.800,316.800 152.552,316.800 152.249 C 316.800 151.946,316.528 151.472,316.195 151.196 C 315.862 150.920,315.055 149.572,314.400 148.200 C 313.745 146.828,312.938 145.480,312.605 145.204 C 312.272 144.928,312.000 144.454,312.000 144.151 C 312.000 143.848,311.820 143.600,311.600 143.600 C 311.380 143.600,311.200 143.280,311.200 142.888 C 311.200 142.497,310.840 141.917,310.400 141.600 C 309.960 141.283,309.600 140.703,309.600 140.312 C 309.600 139.920,309.420 139.600,309.200 139.600 C 308.980 139.600,308.800 139.240,308.800 138.800 C 308.800 138.360,308.620 138.000,308.400 138.000 C 308.180 138.000,308.000 137.706,308.000 137.347 C 308.000 136.988,307.684 136.403,307.297 136.047 C 306.911 135.691,306.396 134.950,306.153 134.400 C 305.910 133.850,305.419 132.725,305.062 131.900 C 304.705 131.075,304.230 130.400,304.006 130.400 C 303.783 130.400,303.600 130.040,303.600 129.600 C 303.600 129.160,303.420 128.800,303.200 128.800 C 302.980 128.800,302.800 128.440,302.800 128.000 C 302.800 127.560,302.620 127.200,302.400 127.200 C 302.180 127.200,302.000 126.880,302.000 126.488 C 302.000 126.097,301.640 125.517,301.200 125.200 C 300.760 124.883,300.400 124.303,300.400 123.912 C 300.400 123.520,300.220 123.200,300.000 123.200 C 299.780 123.200,299.600 122.906,299.600 122.547 C 299.600 122.188,299.285 121.601,298.900 121.243 C 297.999 120.404,297.200 118.977,297.200 118.205 C 297.200 117.872,297.020 117.600,296.800 117.600 C 296.580 117.600,296.400 117.306,296.400 116.947 C 296.400 116.588,296.082 116.003,295.693 115.647 C 295.304 115.291,294.542 114.100,294.000 113.000 C 293.458 111.900,292.696 110.709,292.307 110.353 C 291.918 109.997,291.600 109.412,291.600 109.053 C 291.600 108.694,291.420 108.400,291.200 108.400 C 290.980 108.400,290.800 108.040,290.800 107.600 C 290.800 107.160,290.620 106.800,290.400 106.800 C 290.180 106.800,290.000 106.440,290.000 106.000 C 290.000 105.560,289.855 105.200,289.677 105.200 C 289.499 105.200,289.025 104.435,288.623 103.500 C 288.221 102.565,287.582 101.440,287.203 101.000 C 286.824 100.560,286.024 99.179,285.425 97.931 C 284.826 96.682,284.080 95.563,283.768 95.443 C 283.456 95.323,283.200 94.859,283.200 94.413 C 283.200 93.966,283.020 93.600,282.800 93.600 C 282.580 93.600,282.400 93.240,282.400 92.800 C 282.400 92.360,282.220 92.000,282.000 92.000 C 281.780 92.000,281.600 91.683,281.600 91.296 C 281.600 90.909,281.240 90.368,280.800 90.093 C 280.360 89.818,280.000 89.235,280.000 88.797 C 280.000 88.358,279.820 88.000,279.600 88.000 C 279.380 88.000,279.200 87.640,279.200 87.200 C 279.200 86.760,279.020 86.400,278.800 86.400 C 278.580 86.400,278.400 86.080,278.400 85.688 C 278.400 85.297,278.040 84.717,277.600 84.400 C 277.160 84.083,276.800 83.503,276.800 83.112 C 276.800 82.720,276.620 82.400,276.400 82.400 C 276.180 82.400,276.000 82.106,276.000 81.747 C 276.000 81.388,275.682 80.803,275.293 80.447 C 274.904 80.091,274.142 78.900,273.599 77.800 C 273.055 76.700,272.488 75.708,272.337 75.596 C 272.186 75.484,271.513 74.204,270.842 72.753 C 270.170 71.302,269.383 69.918,269.092 69.677 C 268.802 69.436,268.314 68.600,268.008 67.819 C 267.701 67.039,267.304 66.400,267.125 66.400 C 266.946 66.400,266.800 66.062,266.800 65.649 C 266.800 65.236,266.527 64.671,266.193 64.394 C 265.859 64.117,265.283 63.240,264.913 62.445 C 264.543 61.650,263.917 60.709,263.520 60.353 C 263.124 59.997,262.800 59.412,262.800 59.053 C 262.800 58.694,262.620 58.400,262.400 58.400 C 262.180 58.400,262.000 58.040,262.000 57.600 C 262.000 57.160,261.820 56.800,261.600 56.800 C 261.380 56.800,261.200 56.564,261.200 56.275 C 261.200 55.987,260.840 55.364,260.400 54.892 C 259.960 54.420,259.600 53.756,259.600 53.417 C 259.600 53.078,259.420 52.800,259.200 52.800 C 258.980 52.800,258.800 52.506,258.800 52.147 C 258.800 51.788,258.484 51.203,258.097 50.847 C 257.711 50.491,257.140 49.705,256.830 49.100 C 256.519 48.495,256.115 48.000,255.932 48.000 C 255.750 48.000,255.600 47.640,255.600 47.200 C 255.600 46.760,255.461 46.400,255.291 46.400 C 255.121 46.400,254.643 45.770,254.228 45.000 C 253.813 44.230,253.322 43.600,253.137 43.600 C 252.952 43.600,252.800 43.339,252.800 43.020 C 252.800 42.351,242.218 31.600,241.559 31.600 C 241.318 31.600,240.622 31.066,240.013 30.414 C 239.404 29.762,238.785 29.348,238.639 29.495 C 238.492 29.641,237.934 29.289,237.398 28.712 C 236.863 28.134,236.059 27.546,235.612 27.404 C 235.166 27.262,234.800 26.978,234.800 26.773 C 234.800 26.568,234.440 26.400,234.000 26.400 C 233.560 26.400,233.200 26.220,233.200 26.000 C 233.200 25.780,232.840 25.600,232.400 25.600 C 231.960 25.600,231.600 25.420,231.600 25.200 C 231.600 24.980,231.240 24.800,230.800 24.800 C 230.360 24.800,230.000 24.620,230.000 24.400 C 230.000 24.180,229.640 24.000,229.200 24.000 C 228.760 24.000,228.400 23.820,228.400 23.600 C 228.400 23.380,228.040 23.200,227.600 23.200 C 227.160 23.200,226.800 23.020,226.800 22.800 C 226.800 22.580,226.260 22.400,225.600 22.400 C 224.940 22.400,224.400 22.220,224.400 22.000 C 224.400 21.780,223.961 21.600,223.424 21.600 C 222.887 21.600,222.336 21.420,222.200 21.200 C 222.064 20.980,221.609 20.800,221.189 20.800 C 220.768 20.800,219.783 20.440,219.000 20.000 C 218.217 19.560,216.861 19.200,215.988 19.200 C 215.115 19.200,214.400 19.020,214.400 18.800 C 214.400 18.580,213.500 18.400,212.400 18.400 C 211.300 18.400,210.400 18.220,210.400 18.000 C 210.400 17.744,206.667 17.600,200.000 17.600 C 193.333 17.600,189.600 17.744,189.600 18.000 M219.200 99.200 C 219.200 99.420,219.700 99.600,220.312 99.600 C 220.965 99.600,221.661 99.930,222.000 100.400 C 222.317 100.840,222.815 101.200,223.106 101.200 C 224.628 101.200,227.600 106.398,227.600 109.060 C 227.600 109.929,227.800 110.840,228.045 111.085 C 228.325 111.365,228.391 112.177,228.224 113.265 C 228.078 114.219,227.776 117.700,227.553 121.000 C 227.330 124.300,226.979 127.313,226.774 127.695 C 226.568 128.077,226.400 129.832,226.400 131.595 C 226.400 133.465,226.233 134.800,226.000 134.800 C 225.763 134.800,225.600 136.267,225.600 138.400 C 225.600 140.533,225.437 142.000,225.200 142.000 C 224.969 142.000,224.800 143.267,224.800 145.000 C 224.800 146.733,224.631 148.000,224.400 148.000 C 224.163 148.000,224.000 149.467,224.000 151.600 C 224.000 153.733,223.837 155.200,223.600 155.200 C 223.365 155.200,223.200 156.592,223.200 158.576 C 223.200 160.433,223.020 162.064,222.800 162.200 C 222.580 162.336,222.400 163.967,222.400 165.824 C 222.400 167.808,222.235 169.200,222.000 169.200 C 221.767 169.200,221.600 170.533,221.600 172.400 C 221.600 174.267,221.433 175.600,221.200 175.600 C 220.965 175.600,220.800 177.000,220.800 179.000 C 220.800 181.000,220.635 182.400,220.400 182.400 C 220.163 182.400,220.000 183.859,220.000 185.976 C 220.000 187.943,219.820 189.664,219.600 189.800 C 219.380 189.936,219.200 191.567,219.200 193.424 C 219.200 195.408,219.035 196.800,218.800 196.800 C 218.569 196.800,218.400 198.067,218.400 199.800 C 218.400 201.533,218.231 202.800,218.000 202.800 C 217.763 202.800,217.600 204.267,217.600 206.400 C 217.600 208.533,217.437 210.000,217.200 210.000 C 216.965 210.000,216.800 211.392,216.800 213.376 C 216.800 215.233,216.620 216.864,216.400 217.000 C 216.180 217.136,216.000 218.587,216.000 220.224 C 216.000 221.941,215.831 223.200,215.600 223.200 C 215.365 223.200,215.200 224.592,215.200 226.576 C 215.200 228.433,215.020 230.064,214.800 230.200 C 214.580 230.336,214.400 231.757,214.400 233.357 C 214.400 234.957,214.274 236.393,214.120 236.546 C 213.966 236.700,213.889 237.606,213.947 238.560 C 214.027 239.864,213.892 240.356,213.399 240.545 C 212.997 240.699,212.793 241.144,212.872 241.698 C 212.953 242.263,212.664 242.873,212.100 243.329 C 211.605 243.730,211.200 244.277,211.200 244.545 C 211.200 245.208,208.118 248.000,207.386 248.000 C 207.064 248.000,206.800 248.180,206.800 248.400 C 206.800 248.620,206.440 248.800,206.000 248.800 C 205.560 248.800,205.200 248.980,205.200 249.200 C 205.200 249.420,204.660 249.600,204.000 249.600 C 203.340 249.600,202.800 249.780,202.800 250.000 C 202.800 250.229,201.600 250.400,200.000 250.400 C 198.400 250.400,197.200 250.229,197.200 250.000 C 197.200 249.780,196.660 249.600,196.000 249.600 C 195.340 249.600,194.800 249.420,194.800 249.200 C 194.800 248.980,194.528 248.800,194.195 248.800 C 191.449 248.800,186.400 242.029,186.400 238.347 C 186.400 237.522,186.220 236.736,186.000 236.600 C 185.780 236.464,185.600 235.024,185.600 233.400 C 185.600 231.776,185.420 230.336,185.200 230.200 C 184.980 230.064,184.800 228.433,184.800 226.576 C 184.800 224.592,184.635 223.200,184.400 223.200 C 184.169 223.200,184.000 221.941,184.000 220.224 C 184.000 218.587,183.820 217.136,183.600 217.000 C 183.380 216.864,183.200 215.233,183.200 213.376 C 183.200 211.392,183.035 210.000,182.800 210.000 C 182.563 210.000,182.400 208.533,182.400 206.400 C 182.400 204.267,182.237 202.800,182.000 202.800 C 181.769 202.800,181.600 201.541,181.600 199.824 C 181.600 198.187,181.420 196.736,181.200 196.600 C 180.980 196.464,180.800 194.934,180.800 193.200 C 180.800 191.466,180.620 189.936,180.400 189.800 C 180.180 189.664,180.000 187.933,180.000 185.953 C 180.000 183.655,179.855 182.442,179.600 182.600 C 179.345 182.758,179.200 181.537,179.200 179.224 C 179.200 177.075,179.037 175.600,178.800 175.600 C 178.567 175.600,178.400 174.267,178.400 172.400 C 178.400 170.533,178.233 169.200,178.000 169.200 C 177.765 169.200,177.600 167.808,177.600 165.824 C 177.600 163.967,177.420 162.336,177.200 162.200 C 176.980 162.064,176.800 160.433,176.800 158.576 C 176.800 156.592,176.635 155.200,176.400 155.200 C 176.163 155.200,176.000 153.733,176.000 151.600 C 176.000 149.467,175.837 148.000,175.600 148.000 C 175.369 148.000,175.200 146.733,175.200 145.000 C 175.200 143.267,175.031 142.000,174.800 142.000 C 174.563 142.000,174.400 140.533,174.400 138.400 C 174.400 136.267,174.237 134.800,174.000 134.800 C 173.767 134.800,173.600 133.465,173.600 131.595 C 173.600 129.832,173.432 128.077,173.226 127.695 C 173.021 127.313,172.673 124.300,172.453 121.000 C 172.233 117.700,171.930 114.309,171.779 113.463 C 171.625 112.601,171.687 111.548,171.921 111.063 C 172.150 110.589,172.448 109.125,172.583 107.811 C 172.743 106.247,173.099 105.133,173.614 104.585 C 174.046 104.125,174.400 103.617,174.400 103.456 C 174.400 102.953,176.337 101.200,176.894 101.200 C 177.185 101.200,177.683 100.840,178.000 100.400 C 178.339 99.930,179.035 99.600,179.688 99.600 C 180.300 99.600,180.800 99.420,180.800 99.200 C 180.800 98.939,187.467 98.800,200.000 98.800 C 212.533 98.800,219.200 98.939,219.200 99.200 M206.000 274.000 C 206.000 274.220,206.720 274.400,207.600 274.400 C 208.480 274.400,209.200 274.580,209.200 274.800 C 209.200 275.020,209.543 275.200,209.962 275.200 C 210.920 275.200,213.988 276.770,214.847 277.700 C 215.203 278.085,215.693 278.400,215.937 278.400 C 217.046 278.400,223.052 285.065,224.408 287.800 C 225.172 289.340,225.932 290.660,226.098 290.733 C 226.264 290.807,226.400 291.557,226.400 292.400 C 226.400 293.243,226.607 294.002,226.861 294.087 C 227.493 294.298,227.475 307.308,226.842 307.519 C 226.599 307.600,226.400 308.091,226.400 308.610 C 226.400 309.128,226.220 309.664,226.000 309.800 C 225.780 309.936,225.600 310.369,225.600 310.762 C 225.600 311.771,224.420 314.018,223.756 314.272 C 223.450 314.390,223.200 314.754,223.200 315.082 C 223.200 315.411,222.660 316.183,222.000 316.800 C 221.340 317.417,220.800 318.127,220.800 318.379 C 220.800 318.973,218.973 320.800,218.379 320.800 C 218.127 320.800,217.417 321.340,216.800 322.000 C 216.183 322.660,215.411 323.200,215.082 323.200 C 214.754 323.200,214.391 323.447,214.275 323.748 C 213.980 324.519,210.063 326.400,208.755 326.400 C 208.156 326.400,207.592 326.625,207.500 326.900 C 207.375 327.276,205.511 327.400,200.000 327.400 C 194.489 327.400,192.625 327.276,192.500 326.900 C 192.404 326.613,191.664 326.400,190.767 326.400 C 189.905 326.400,189.200 326.264,189.200 326.098 C 189.200 325.931,188.615 325.540,187.900 325.228 C 187.185 324.916,186.309 324.332,185.953 323.930 C 185.597 323.529,185.077 323.200,184.796 323.200 C 184.516 323.200,183.771 322.660,183.140 322.000 C 182.509 321.340,181.806 320.800,181.578 320.800 C 180.989 320.800,179.201 318.937,179.196 318.318 C 179.194 318.033,178.654 317.375,177.996 316.855 C 177.338 316.335,176.800 315.647,176.800 315.326 C 176.800 314.616,175.792 313.542,175.448 313.886 C 175.311 314.022,175.200 313.754,175.200 313.290 C 175.200 312.827,175.020 312.336,174.800 312.200 C 174.580 312.064,174.400 311.524,174.400 311.000 C 174.400 310.476,174.220 309.936,174.000 309.800 C 173.780 309.664,173.600 309.128,173.600 308.610 C 173.600 308.091,173.401 307.600,173.158 307.519 C 172.525 307.308,172.507 294.298,173.139 294.087 C 173.393 294.002,173.600 293.243,173.600 292.400 C 173.600 291.557,173.736 290.807,173.902 290.733 C 174.068 290.660,174.833 289.341,175.602 287.802 C 176.978 285.048,182.950 278.400,184.047 278.400 C 184.300 278.400,184.797 278.085,185.153 277.700 C 186.012 276.770,189.080 275.200,190.038 275.200 C 190.457 275.200,190.800 275.020,190.800 274.800 C 190.800 274.580,191.520 274.400,192.400 274.400 C 193.280 274.400,194.000 274.220,194.000 274.000 C 194.000 273.751,196.267 273.600,200.000 273.600 C 203.733 273.600,206.000 273.751,206.000 274.000 " stroke="none" fill="#fcc43c" fill-rule="evenodd"></path><path id="path1" d="" stroke="none" fill="#100c43c" fill-rule="evenodd"></path><path id="path2" d="" stroke="none" fill="#100c43c" fill-rule="evenodd"></path><path id="path3" d="" stroke="none" fill="#100c43c" fill-rule="evenodd"></path><path id="path4" d="" stroke="none" fill="#100c43c" fill-rule="evenodd"></path></g></svg>