<svg id="svg" version="1.1" xmlns="http://www.w3.org/2000/svg" xmlns:xlink="http://www.w3.org/1999/xlink" width="400" height="400" viewBox="0, 0, 400,400"><g id="svgg"><path id="path0" d="M188.800 35.200 C 188.800 35.438,187.275 35.600,185.024 35.600 C 182.937 35.600,181.137 35.779,181.000 36.000 C 180.864 36.220,179.593 36.400,178.176 36.400 C 176.725 36.400,175.600 36.575,175.600 36.800 C 175.600 37.022,174.533 37.200,173.200 37.200 C 171.867 37.200,170.800 37.378,170.800 37.600 C 170.800 37.820,169.900 38.000,168.800 38.000 C 167.700 38.000,166.800 38.180,166.800 38.400 C 166.800 38.620,166.001 38.800,165.024 38.800 C 164.047 38.800,163.136 38.980,163.000 39.200 C 162.864 39.420,162.144 39.600,161.400 39.600 C 160.656 39.600,159.936 39.780,159.800 40.000 C 159.664 40.220,159.113 40.400,158.576 40.400 C 158.039 40.400,157.600 40.580,157.600 40.800 C 157.600 41.020,156.880 41.200,156.000 41.200 C 155.120 41.200,154.400 41.341,154.400 41.514 C 154.400 41.824,151.239 42.623,148.270 43.063 C 147.429 43.188,146.644 43.541,146.527 43.847 C 146.409 44.154,145.608 44.517,144.747 44.655 C 143.887 44.792,143.086 45.061,142.968 45.253 C 142.849 45.444,142.409 45.600,141.989 45.600 C 141.568 45.600,140.583 45.960,139.800 46.400 C 139.017 46.840,138.136 47.200,137.844 47.200 C 137.195 47.200,132.253 49.681,132.067 50.100 C 131.993 50.265,131.308 50.400,130.543 50.400 C 129.718 50.400,129.253 50.563,129.400 50.800 C 129.540 51.027,129.204 51.200,128.624 51.200 C 128.061 51.200,127.600 51.346,127.600 51.525 C 127.600 51.704,126.970 52.098,126.200 52.400 C 125.430 52.702,124.800 53.096,124.800 53.275 C 124.800 53.454,124.480 53.600,124.088 53.600 C 123.697 53.600,123.117 53.960,122.800 54.400 C 122.483 54.840,121.903 55.200,121.512 55.200 C 121.120 55.200,120.800 55.380,120.800 55.600 C 120.800 55.820,120.440 56.000,120.000 56.000 C 119.560 56.000,119.200 56.180,119.200 56.400 C 119.200 56.620,118.906 56.800,118.547 56.800 C 118.188 56.800,117.601 57.115,117.243 57.500 C 116.413 58.392,114.980 59.200,114.228 59.200 C 113.908 59.200,113.407 59.515,113.117 59.900 C 112.545 60.656,111.503 61.383,110.140 61.976 C 109.668 62.181,109.007 62.740,108.672 63.218 C 108.336 63.699,107.861 63.962,107.611 63.807 C 107.361 63.653,106.831 63.903,106.432 64.363 C 106.033 64.823,105.452 65.200,105.141 65.200 C 104.831 65.200,104.317 65.560,104.000 66.000 C 103.683 66.440,103.179 66.800,102.880 66.800 C 102.582 66.800,101.646 67.520,100.800 68.400 C 99.954 69.280,99.068 70.000,98.830 70.000 C 98.592 70.000,97.747 70.720,96.952 71.600 C 96.157 72.480,95.262 73.200,94.962 73.200 C 94.662 73.200,93.468 74.177,92.308 75.370 C 91.149 76.564,89.934 77.599,89.610 77.670 C 89.041 77.795,88.000 78.585,88.000 78.891 C 88.000 79.086,79.086 88.000,78.891 88.000 C 78.585 88.000,77.795 89.041,77.670 89.610 C 77.599 89.934,76.564 91.149,75.370 92.308 C 74.177 93.468,73.200 94.662,73.200 94.962 C 73.200 95.262,72.480 96.157,71.600 96.952 C 70.720 97.747,70.000 98.592,70.000 98.830 C 70.000 99.068,69.280 99.954,68.400 100.800 C 67.520 101.646,66.800 102.582,66.800 102.880 C 66.800 103.179,66.440 103.683,66.000 104.000 C 65.560 104.317,65.200 104.831,65.200 105.141 C 65.200 105.452,64.823 106.033,64.363 106.432 C 63.903 106.831,63.653 107.361,63.807 107.611 C 63.962 107.861,63.699 108.336,63.218 108.672 C 62.740 109.007,62.181 109.668,61.976 110.140 C 61.383 111.503,60.656 112.545,59.900 113.117 C 59.515 113.407,59.200 113.908,59.200 114.228 C 59.200 114.980,58.392 116.413,57.500 117.243 C 57.115 117.601,56.800 118.188,56.800 118.547 C 56.800 118.906,56.620 119.200,56.400 119.200 C 56.180 119.200,56.000 119.560,56.000 120.000 C 56.000 120.440,55.820 120.800,55.600 120.800 C 55.380 120.800,55.200 121.120,55.200 121.512 C 55.200 121.903,54.840 122.483,54.400 122.800 C 53.960 123.117,53.600 123.697,53.600 124.088 C 53.600 124.480,53.454 124.800,53.275 124.800 C 53.096 124.800,52.702 125.430,52.400 126.200 C 52.098 126.970,51.704 127.600,51.525 127.600 C 51.346 127.600,51.200 128.061,51.200 128.624 C 51.200 129.204,51.027 129.540,50.800 129.400 C 50.563 129.253,50.400 129.718,50.400 130.543 C 50.400 131.308,50.265 131.993,50.100 132.067 C 49.681 132.253,47.200 137.195,47.200 137.844 C 47.200 138.136,46.840 139.017,46.400 139.800 C 45.960 140.583,45.600 141.568,45.600 141.989 C 45.600 142.409,45.444 142.849,45.253 142.968 C 45.061 143.086,44.792 143.887,44.655 144.747 C 44.517 145.608,44.154 146.409,43.847 146.527 C 43.541 146.644,43.188 147.429,43.063 148.270 C 42.623 151.239,41.824 154.400,41.514 154.400 C 41.341 154.400,41.200 154.940,41.200 155.600 C 41.200 156.260,41.020 156.800,40.800 156.800 C 40.580 156.800,40.400 157.419,40.400 158.176 C 40.400 158.933,40.220 159.664,40.000 159.800 C 39.780 159.936,39.600 160.656,39.600 161.400 C 39.600 162.144,39.420 162.864,39.200 163.000 C 38.980 163.136,38.800 164.047,38.800 165.024 C 38.800 166.001,38.620 166.800,38.400 166.800 C 38.180 166.800,38.000 167.700,38.000 168.800 C 38.000 169.900,37.820 170.800,37.600 170.800 C 37.380 170.800,37.200 171.700,37.200 172.800 C 37.200 173.900,37.020 174.800,36.800 174.800 C 36.569 174.800,36.400 176.059,36.400 177.776 C 36.400 179.413,36.220 180.864,36.000 181.000 C 35.779 181.137,35.600 182.937,35.600 185.024 C 35.600 187.275,35.438 188.800,35.200 188.800 C 34.941 188.800,34.800 193.600,34.800 202.400 C 34.800 211.200,34.941 216.000,35.200 216.000 C 35.438 216.000,35.600 217.525,35.600 219.776 C 35.600 221.863,35.779 223.663,36.000 223.800 C 36.220 223.936,36.400 225.207,36.400 226.624 C 36.400 228.075,36.575 229.200,36.800 229.200 C 37.022 229.200,37.200 230.267,37.200 231.600 C 37.200 232.933,37.378 234.000,37.600 234.000 C 37.820 234.000,38.000 234.720,38.000 235.600 C 38.000 236.480,38.180 237.200,38.400 237.200 C 38.620 237.200,38.800 238.010,38.800 239.000 C 38.800 239.990,38.980 240.800,39.200 240.800 C 39.420 240.800,39.600 241.520,39.600 242.400 C 39.600 243.280,39.780 244.000,40.000 244.000 C 40.220 244.000,40.400 244.720,40.400 245.600 C 40.400 246.480,40.580 247.200,40.800 247.200 C 41.020 247.200,41.200 247.740,41.200 248.400 C 41.200 249.060,41.343 249.600,41.518 249.600 C 41.693 249.600,42.037 250.725,42.283 252.100 C 42.976 255.975,43.281 256.965,43.927 257.440 C 44.289 257.707,44.436 258.219,44.300 258.740 C 44.176 259.213,44.193 259.601,44.337 259.603 C 44.754 259.608,45.600 261.669,45.600 262.680 C 45.600 263.186,45.735 263.601,45.900 263.603 C 46.256 263.607,47.200 265.541,47.200 266.268 C 47.200 266.547,47.560 267.417,48.000 268.200 C 48.440 268.983,48.800 270.069,48.800 270.612 C 48.800 271.155,48.980 271.600,49.200 271.600 C 49.420 271.600,49.600 271.870,49.600 272.200 C 49.600 272.530,49.780 272.800,50.000 272.800 C 50.220 272.800,50.400 273.160,50.400 273.600 C 50.400 274.040,50.535 274.401,50.700 274.403 C 51.059 274.407,52.000 276.344,52.000 277.080 C 52.000 277.366,52.135 277.601,52.300 277.603 C 52.659 277.607,53.600 279.544,53.600 280.280 C 53.600 280.566,53.780 280.800,54.000 280.800 C 54.220 280.800,54.400 281.048,54.400 281.351 C 54.400 281.654,54.666 282.123,54.992 282.393 C 55.693 282.976,56.800 285.098,56.800 285.861 C 56.800 286.158,56.980 286.400,57.200 286.400 C 57.420 286.400,57.600 286.694,57.600 287.053 C 57.600 287.412,57.936 287.997,58.346 288.353 C 58.757 288.709,59.221 289.586,59.378 290.300 C 59.543 291.052,59.913 291.600,60.255 291.600 C 60.581 291.600,60.736 291.780,60.600 292.000 C 60.464 292.220,60.543 292.400,60.776 292.400 C 61.009 292.400,61.200 292.730,61.200 293.132 C 61.200 293.535,61.656 294.109,62.214 294.407 C 62.772 294.706,63.144 295.169,63.041 295.437 C 62.938 295.706,63.202 296.240,63.627 296.624 C 64.052 297.009,64.402 297.611,64.404 297.962 C 64.406 298.313,64.946 299.025,65.604 299.545 C 66.262 300.065,66.800 300.860,66.800 301.312 C 66.800 301.764,66.910 302.023,67.044 301.889 C 67.329 301.605,69.200 303.718,69.200 304.324 C 69.200 304.549,69.920 305.415,70.800 306.249 C 71.680 307.083,72.400 307.912,72.400 308.093 C 72.400 308.273,73.210 309.231,74.200 310.221 C 75.190 311.211,76.006 312.241,76.013 312.511 C 76.030 313.187,77.853 315.200,78.447 315.200 C 78.715 315.200,78.812 315.321,78.663 315.470 C 78.515 315.618,78.890 316.067,79.497 316.467 C 80.104 316.867,80.474 317.196,80.321 317.197 C 80.168 317.199,81.600 318.730,83.504 320.600 C 85.408 322.470,87.166 324.000,87.411 324.000 C 87.656 324.000,88.702 324.810,89.735 325.800 C 90.769 326.790,91.769 327.600,91.959 327.600 C 92.149 327.600,92.935 328.320,93.706 329.200 C 94.478 330.080,95.383 330.800,95.719 330.800 C 96.054 330.800,96.783 331.340,97.339 332.000 C 97.894 332.660,98.610 333.200,98.929 333.200 C 99.249 333.200,99.929 333.727,100.442 334.370 C 100.954 335.014,101.503 335.460,101.661 335.362 C 101.819 335.265,102.402 335.638,102.956 336.192 C 103.510 336.747,104.214 337.200,104.520 337.200 C 104.826 337.200,105.402 337.560,105.800 338.000 C 106.198 338.440,106.726 338.800,106.974 338.800 C 107.221 338.800,107.678 339.153,107.989 339.585 C 108.301 340.017,109.105 340.487,109.778 340.628 C 110.450 340.770,111.360 341.201,111.800 341.586 C 112.240 341.971,113.185 342.536,113.900 342.841 C 114.615 343.146,115.200 343.531,115.200 343.698 C 115.200 343.864,115.520 344.000,115.912 344.000 C 116.303 344.000,116.883 344.360,117.200 344.800 C 117.517 345.240,118.097 345.600,118.488 345.600 C 118.880 345.600,119.200 345.780,119.200 346.000 C 119.200 346.220,119.560 346.400,120.000 346.400 C 120.440 346.400,120.800 346.580,120.800 346.800 C 120.800 347.020,121.160 347.200,121.600 347.200 C 122.040 347.200,122.400 347.380,122.400 347.600 C 122.400 347.820,122.760 348.000,123.200 348.000 C 123.640 348.000,124.000 348.180,124.000 348.400 C 124.000 348.620,124.360 348.800,124.800 348.800 C 125.240 348.800,125.600 348.946,125.600 349.125 C 125.600 349.304,126.230 349.698,127.000 350.000 C 127.770 350.302,128.400 350.696,128.400 350.875 C 128.400 351.054,128.940 351.200,129.600 351.200 C 130.260 351.200,130.800 351.380,130.800 351.600 C 130.800 351.820,131.149 352.000,131.576 352.000 C 132.003 352.000,132.464 352.180,132.600 352.400 C 132.736 352.620,133.191 352.800,133.611 352.800 C 134.032 352.800,135.017 353.160,135.800 353.600 C 136.583 354.040,137.568 354.400,137.989 354.400 C 138.409 354.400,138.849 354.556,138.967 354.746 C 139.085 354.937,139.635 355.006,140.190 354.900 C 140.956 354.753,141.200 354.874,141.200 355.400 C 141.200 355.896,141.427 356.034,142.000 355.884 C 142.520 355.748,142.800 355.872,142.800 356.237 C 142.800 356.588,143.226 356.800,143.933 356.800 C 144.557 356.800,145.190 356.923,145.341 357.074 C 145.842 357.575,148.540 358.360,150.684 358.628 C 151.848 358.773,152.800 359.051,152.800 359.246 C 152.800 359.441,153.520 359.600,154.400 359.600 C 155.280 359.600,156.000 359.780,156.000 360.000 C 156.000 360.220,156.720 360.400,157.600 360.400 C 158.480 360.400,159.200 360.580,159.200 360.800 C 159.200 361.020,160.010 361.200,161.000 361.200 C 161.990 361.200,162.800 361.380,162.800 361.600 C 162.800 361.820,163.520 362.000,164.400 362.000 C 165.280 362.000,166.000 362.180,166.000 362.400 C 166.000 362.629,167.200 362.800,168.800 362.800 C 170.400 362.800,171.600 362.971,171.600 363.200 C 171.600 363.420,172.579 363.600,173.776 363.600 C 174.973 363.600,176.064 363.780,176.200 364.000 C 176.337 364.221,178.137 364.400,180.224 364.400 C 182.475 364.400,184.000 364.562,184.000 364.800 C 184.000 365.059,188.800 365.200,197.600 365.200 C 206.400 365.200,211.200 365.059,211.200 364.800 C 211.200 364.562,212.725 364.400,214.976 364.400 C 217.063 364.400,218.863 364.221,219.000 364.000 C 219.136 363.780,220.396 363.600,221.800 363.600 C 223.204 363.600,224.464 363.420,224.600 363.200 C 224.736 362.980,225.827 362.800,227.024 362.800 C 228.221 362.800,229.200 362.620,229.200 362.400 C 229.200 362.180,230.100 362.000,231.200 362.000 C 232.300 362.000,233.200 361.820,233.200 361.600 C 233.200 361.380,233.999 361.200,234.976 361.200 C 235.953 361.200,236.864 361.020,237.000 360.800 C 237.136 360.580,237.856 360.400,238.600 360.400 C 239.344 360.400,240.064 360.220,240.200 360.000 C 240.336 359.780,241.067 359.600,241.824 359.600 C 242.581 359.600,243.200 359.443,243.200 359.252 C 243.200 359.060,244.116 358.782,245.235 358.633 C 246.354 358.485,247.569 358.200,247.935 358.000 C 248.973 357.435,253.382 356.000,254.084 356.000 C 254.431 356.000,254.826 355.709,254.962 355.354 C 255.130 354.917,255.532 354.770,256.205 354.899 C 256.752 355.003,257.200 354.934,257.200 354.745 C 257.200 354.555,257.740 354.400,258.400 354.400 C 259.060 354.400,259.601 354.265,259.603 354.100 C 259.607 353.751,261.535 352.800,262.239 352.800 C 262.503 352.800,263.745 352.260,265.000 351.600 C 266.255 350.940,267.533 350.400,267.841 350.400 C 268.148 350.400,268.400 350.220,268.400 350.000 C 268.400 349.780,268.940 349.600,269.600 349.600 C 270.260 349.600,270.800 349.420,270.800 349.200 C 270.800 348.980,271.160 348.800,271.600 348.800 C 272.040 348.800,272.400 348.654,272.400 348.475 C 272.400 348.296,273.030 347.902,273.800 347.600 C 274.570 347.298,275.200 346.904,275.200 346.725 C 275.200 346.546,275.520 346.400,275.912 346.400 C 276.303 346.400,276.883 346.040,277.200 345.600 C 277.517 345.160,278.097 344.800,278.488 344.800 C 278.880 344.800,279.200 344.620,279.200 344.400 C 279.200 344.180,279.560 344.000,280.000 344.000 C 280.440 344.000,280.800 343.820,280.800 343.600 C 280.800 343.380,281.120 343.200,281.512 343.200 C 281.903 343.200,282.483 342.840,282.800 342.400 C 283.117 341.960,283.697 341.600,284.088 341.600 C 284.480 341.600,284.800 341.420,284.800 341.200 C 284.800 340.980,285.094 340.800,285.453 340.800 C 285.812 340.800,286.433 340.423,286.832 339.963 C 287.231 339.503,287.747 339.244,287.979 339.387 C 288.210 339.530,288.400 339.461,288.400 339.234 C 288.400 339.007,288.895 338.563,289.500 338.248 C 290.105 337.934,291.028 337.303,291.552 336.846 C 292.075 336.390,292.627 336.093,292.779 336.187 C 292.930 336.281,293.307 336.007,293.615 335.579 C 293.924 335.150,294.457 334.800,294.800 334.800 C 295.143 334.800,295.683 334.440,296.000 334.000 C 296.317 333.560,296.821 333.200,297.120 333.200 C 297.418 333.200,298.354 332.480,299.200 331.600 C 300.046 330.720,300.918 330.000,301.138 330.000 C 301.358 330.000,302.244 329.280,303.107 328.400 C 303.969 327.520,304.880 326.800,305.129 326.800 C 305.379 326.800,306.542 325.810,307.714 324.600 C 308.886 323.390,310.073 322.400,310.351 322.400 C 310.979 322.400,312.000 321.413,312.000 320.805 C 312.000 320.556,312.135 320.415,312.300 320.490 C 312.683 320.665,320.755 312.489,320.476 312.209 C 320.361 312.094,320.490 312.000,320.762 312.000 C 321.406 312.000,322.400 310.999,322.400 310.351 C 322.400 310.073,323.390 308.886,324.600 307.714 C 325.810 306.542,326.800 305.379,326.800 305.129 C 326.800 304.880,327.520 303.969,328.400 303.107 C 329.280 302.244,330.000 301.358,330.000 301.138 C 330.000 300.918,330.720 300.046,331.600 299.200 C 332.480 298.354,333.200 297.418,333.200 297.120 C 333.200 296.821,333.560 296.317,334.000 296.000 C 334.440 295.683,334.800 295.143,334.800 294.800 C 334.800 294.457,335.150 293.924,335.579 293.615 C 336.007 293.307,336.281 292.930,336.187 292.779 C 336.093 292.627,336.390 292.075,336.846 291.552 C 337.303 291.028,337.934 290.105,338.248 289.500 C 338.563 288.895,339.007 288.400,339.234 288.400 C 339.461 288.400,339.530 288.210,339.387 287.979 C 339.244 287.747,339.503 287.231,339.963 286.832 C 340.423 286.433,340.800 285.812,340.800 285.453 C 340.800 285.094,340.980 284.800,341.200 284.800 C 341.420 284.800,341.600 284.480,341.600 284.088 C 341.600 283.697,341.960 283.117,342.400 282.800 C 342.840 282.483,343.200 281.903,343.200 281.512 C 343.200 281.120,343.380 280.800,343.600 280.800 C 343.820 280.800,344.000 280.440,344.000 280.000 C 344.000 279.560,344.180 279.200,344.400 279.200 C 344.620 279.200,344.800 278.880,344.800 278.488 C 344.800 278.097,345.160 277.517,345.600 277.200 C 346.040 276.883,346.400 276.303,346.400 275.912 C 346.400 275.520,346.546 275.200,346.725 275.200 C 346.904 275.200,347.298 274.570,347.600 273.800 C 347.902 273.030,348.296 272.400,348.475 272.400 C 348.654 272.400,348.800 272.040,348.800 271.600 C 348.800 271.160,348.980 270.800,349.200 270.800 C 349.420 270.800,349.600 270.260,349.600 269.600 C 349.600 268.940,349.780 268.400,350.000 268.400 C 350.220 268.400,350.400 268.148,350.400 267.841 C 350.400 267.533,350.940 266.255,351.600 265.000 C 352.260 263.745,352.800 262.503,352.800 262.239 C 352.800 261.535,353.751 259.607,354.100 259.603 C 354.265 259.601,354.400 259.060,354.400 258.400 C 354.400 257.740,354.555 257.200,354.745 257.200 C 354.934 257.200,355.003 256.752,354.899 256.205 C 354.770 255.532,354.917 255.130,355.354 254.962 C 355.709 254.826,356.000 254.431,356.000 254.084 C 356.000 253.363,357.443 248.954,358.026 247.895 C 358.239 247.507,358.526 246.112,358.664 244.795 C 358.801 243.478,359.068 242.400,359.257 242.400 C 359.446 242.400,359.600 241.961,359.600 241.424 C 359.600 240.887,359.780 240.336,360.000 240.200 C 360.220 240.064,360.400 239.344,360.400 238.600 C 360.400 237.856,360.580 237.136,360.800 237.000 C 361.020 236.864,361.200 235.953,361.200 234.976 C 361.200 233.999,361.380 233.200,361.600 233.200 C 361.820 233.200,362.000 232.300,362.000 231.200 C 362.000 230.100,362.180 229.200,362.400 229.200 C 362.620 229.200,362.800 228.221,362.800 227.024 C 362.800 225.827,362.980 224.736,363.200 224.600 C 363.420 224.464,363.600 223.204,363.600 221.800 C 363.600 220.396,363.780 219.136,364.000 219.000 C 364.221 218.863,364.400 217.063,364.400 214.976 C 364.400 212.725,364.562 211.200,364.800 211.200 C 365.059 211.200,365.200 206.400,365.200 197.600 C 365.200 188.800,365.059 184.000,364.800 184.000 C 364.562 184.000,364.400 182.475,364.400 180.224 C 364.400 178.137,364.221 176.337,364.000 176.200 C 363.780 176.064,363.600 174.793,363.600 173.376 C 363.600 171.925,363.425 170.800,363.200 170.800 C 362.978 170.800,362.800 169.733,362.800 168.400 C 362.800 167.067,362.622 166.000,362.400 166.000 C 362.180 166.000,362.000 165.280,362.000 164.400 C 362.000 163.520,361.820 162.800,361.600 162.800 C 361.380 162.800,361.200 161.990,361.200 161.000 C 361.200 160.010,361.020 159.200,360.800 159.200 C 360.580 159.200,360.400 158.480,360.400 157.600 C 360.400 156.720,360.220 156.000,360.000 156.000 C 359.780 156.000,359.600 155.280,359.600 154.400 C 359.600 153.520,359.441 152.800,359.246 152.800 C 359.051 152.800,358.773 151.848,358.628 150.684 C 358.360 148.540,357.575 145.842,357.074 145.341 C 356.923 145.190,356.800 144.557,356.800 143.933 C 356.800 143.258,356.585 142.800,356.269 142.800 C 355.907 142.800,355.794 142.419,355.915 141.600 C 356.052 140.663,355.940 140.400,355.403 140.400 C 354.962 140.400,354.795 140.189,354.940 139.813 C 355.064 139.490,354.993 139.119,354.783 138.989 C 354.572 138.859,354.400 138.409,354.400 137.989 C 354.400 137.568,354.040 136.583,353.600 135.800 C 353.160 135.017,352.800 134.032,352.800 133.611 C 352.800 133.191,352.620 132.736,352.400 132.600 C 352.180 132.464,352.000 132.003,352.000 131.576 C 352.000 131.149,351.820 130.800,351.600 130.800 C 351.380 130.800,351.200 130.260,351.200 129.600 C 351.200 128.940,351.054 128.400,350.875 128.400 C 350.696 128.400,350.302 127.770,350.000 127.000 C 349.698 126.230,349.304 125.600,349.125 125.600 C 348.946 125.600,348.800 125.240,348.800 124.800 C 348.800 124.360,348.620 124.000,348.400 124.000 C 348.180 124.000,348.000 123.640,348.000 123.200 C 348.000 122.760,347.820 122.400,347.600 122.400 C 347.380 122.400,347.200 122.040,347.200 121.600 C 347.200 121.160,347.020 120.800,346.800 120.800 C 346.580 120.800,346.400 120.440,346.400 120.000 C 346.400 119.560,346.220 119.200,346.000 119.200 C 345.780 119.200,345.600 118.880,345.600 118.488 C 345.600 118.097,345.240 117.517,344.800 117.200 C 344.360 116.883,344.000 116.303,344.000 115.912 C 344.000 115.520,343.864 115.200,343.698 115.200 C 343.531 115.200,343.146 114.615,342.841 113.900 C 342.536 113.185,341.971 112.240,341.586 111.800 C 341.201 111.360,340.770 110.450,340.628 109.778 C 340.487 109.105,340.017 108.301,339.585 107.989 C 339.153 107.678,338.800 107.221,338.800 106.974 C 338.800 106.726,338.440 106.198,338.000 105.800 C 337.560 105.402,337.200 104.826,337.200 104.520 C 337.200 104.214,336.747 103.510,336.192 102.956 C 335.638 102.402,335.265 101.819,335.362 101.661 C 335.460 101.503,335.014 100.954,334.370 100.442 C 333.727 99.929,333.200 99.249,333.200 98.929 C 333.200 98.610,332.660 97.894,332.000 97.339 C 331.340 96.783,330.800 96.054,330.800 95.719 C 330.800 95.383,330.080 94.478,329.200 93.706 C 328.320 92.935,327.600 92.149,327.600 91.959 C 327.600 91.769,326.790 90.769,325.800 89.735 C 324.810 88.702,324.000 87.656,324.000 87.411 C 324.000 87.166,322.470 85.408,320.600 83.504 C 318.730 81.600,317.199 80.168,317.197 80.321 C 317.196 80.474,316.867 80.104,316.467 79.497 C 316.067 78.890,315.618 78.515,315.470 78.663 C 315.321 78.812,315.200 78.715,315.200 78.447 C 315.200 77.853,313.187 76.030,312.511 76.013 C 312.241 76.006,311.211 75.190,310.221 74.200 C 309.231 73.210,308.273 72.400,308.093 72.400 C 307.912 72.400,307.083 71.680,306.249 70.800 C 305.415 69.920,304.549 69.200,304.324 69.200 C 303.718 69.200,301.605 67.329,301.889 67.044 C 302.023 66.910,301.764 66.800,301.312 66.800 C 300.860 66.800,300.065 66.262,299.545 65.604 C 299.025 64.946,298.313 64.406,297.962 64.404 C 297.611 64.402,297.009 64.052,296.624 63.627 C 296.240 63.202,295.706 62.938,295.437 63.041 C 295.169 63.144,294.706 62.772,294.407 62.214 C 294.109 61.656,293.535 61.200,293.132 61.200 C 292.730 61.200,292.400 61.009,292.400 60.776 C 292.400 60.543,292.220 60.464,292.000 60.600 C 291.780 60.736,291.600 60.581,291.600 60.255 C 291.600 59.913,291.052 59.543,290.300 59.378 C 289.586 59.221,288.709 58.757,288.353 58.346 C 287.997 57.936,287.412 57.600,287.053 57.600 C 286.694 57.600,286.400 57.420,286.400 57.200 C 286.400 56.980,286.158 56.800,285.861 56.800 C 285.098 56.800,282.976 55.693,282.393 54.992 C 282.123 54.666,281.654 54.400,281.351 54.400 C 281.048 54.400,280.800 54.220,280.800 54.000 C 280.800 53.780,280.566 53.600,280.280 53.600 C 279.544 53.600,277.607 52.659,277.603 52.300 C 277.601 52.135,277.366 52.000,277.080 52.000 C 276.344 52.000,274.407 51.059,274.403 50.700 C 274.401 50.535,274.040 50.400,273.600 50.400 C 273.160 50.400,272.800 50.220,272.800 50.000 C 272.800 49.780,272.530 49.600,272.200 49.600 C 271.870 49.600,271.600 49.420,271.600 49.200 C 271.600 48.980,271.155 48.800,270.612 48.800 C 270.069 48.800,268.983 48.440,268.200 48.000 C 267.417 47.560,266.547 47.200,266.268 47.200 C 265.541 47.200,263.607 46.256,263.603 45.900 C 263.601 45.735,263.186 45.600,262.680 45.600 C 261.669 45.600,259.608 44.754,259.603 44.337 C 259.601 44.193,259.213 44.176,258.740 44.300 C 258.219 44.436,257.707 44.289,257.440 43.927 C 256.965 43.281,255.975 42.976,252.100 42.283 C 250.725 42.037,249.600 41.693,249.600 41.518 C 249.600 41.343,249.060 41.200,248.400 41.200 C 247.740 41.200,247.200 41.020,247.200 40.800 C 247.200 40.580,246.480 40.400,245.600 40.400 C 244.720 40.400,244.000 40.220,244.000 40.000 C 244.000 39.780,243.280 39.600,242.400 39.600 C 241.520 39.600,240.800 39.420,240.800 39.200 C 240.800 38.980,239.990 38.800,239.000 38.800 C 238.010 38.800,237.200 38.620,237.200 38.400 C 237.200 38.180,236.480 38.000,235.600 38.000 C 234.720 38.000,234.000 37.820,234.000 37.600 C 234.000 37.378,232.933 37.200,231.600 37.200 C 230.267 37.200,229.200 37.022,229.200 36.800 C 229.200 36.575,228.075 36.400,226.624 36.400 C 225.207 36.400,223.936 36.220,223.800 36.000 C 223.663 35.779,221.863 35.600,219.776 35.600 C 217.525 35.600,216.000 35.438,216.000 35.200 C 216.000 34.941,211.200 34.800,202.400 34.800 C 193.600 34.800,188.800 34.941,188.800 35.200 M142.000 124.800 C 142.000 125.020,142.799 125.200,143.776 125.200 C 144.753 125.200,145.664 125.380,145.800 125.600 C 145.936 125.820,146.407 126.000,146.847 126.000 C 147.287 126.000,147.536 126.180,147.400 126.400 C 147.264 126.620,147.484 126.800,147.888 126.800 C 148.293 126.800,148.883 127.160,149.200 127.600 C 149.517 128.040,150.017 128.400,150.310 128.400 C 150.603 128.400,161.732 139.290,175.041 152.600 C 190.171 167.731,199.526 176.800,200.004 176.800 C 200.483 176.800,209.839 167.731,224.969 152.600 C 238.278 139.290,249.406 128.400,249.696 128.400 C 249.986 128.400,250.483 128.040,250.800 127.600 C 251.117 127.160,251.697 126.800,252.088 126.800 C 252.480 126.800,252.800 126.620,252.800 126.400 C 252.800 126.180,253.160 126.000,253.600 126.000 C 254.040 126.000,254.400 125.820,254.400 125.600 C 254.400 125.380,255.210 125.200,256.200 125.200 C 257.190 125.200,258.000 125.020,258.000 124.800 C 258.000 124.580,258.540 124.400,259.200 124.400 C 259.860 124.400,260.400 124.580,260.400 124.800 C 260.400 125.020,261.221 125.200,262.224 125.200 C 263.337 125.200,263.951 125.356,263.800 125.600 C 263.657 125.832,264.042 126.000,264.714 126.000 C 265.368 126.000,266.193 126.350,266.600 126.800 C 266.998 127.240,267.480 127.600,267.671 127.600 C 268.249 127.600,272.400 131.873,272.400 132.468 C 272.400 132.774,272.760 133.283,273.200 133.600 C 273.677 133.944,274.000 134.635,274.000 135.312 C 274.000 135.967,274.169 136.343,274.400 136.200 C 274.644 136.049,274.800 136.663,274.800 137.776 C 274.800 138.779,274.980 139.600,275.200 139.600 C 275.420 139.600,275.600 140.140,275.600 140.800 C 275.600 141.460,275.420 142.000,275.200 142.000 C 274.980 142.000,274.800 142.703,274.800 143.562 C 274.800 145.190,273.506 148.132,272.300 149.247 C 271.915 149.603,271.600 150.117,271.600 150.389 C 271.600 150.662,260.710 161.763,247.400 175.058 C 231.945 190.495,223.200 199.512,223.200 200.010 C 223.200 200.508,231.945 209.525,247.400 224.962 C 260.710 238.257,271.600 249.376,271.600 249.671 C 271.600 249.966,271.960 250.432,272.400 250.707 C 272.840 250.982,273.200 251.576,273.200 252.027 C 273.200 252.478,273.380 252.736,273.600 252.600 C 273.827 252.460,274.000 252.796,274.000 253.376 C 274.000 253.939,274.180 254.400,274.400 254.400 C 274.620 254.400,274.800 255.019,274.800 255.776 C 274.800 256.533,274.980 257.264,275.200 257.400 C 275.420 257.536,275.600 258.267,275.600 259.024 C 275.600 259.781,275.420 260.400,275.200 260.400 C 274.980 260.400,274.800 261.109,274.800 261.976 C 274.800 262.843,274.620 263.664,274.400 263.800 C 274.180 263.936,274.000 264.459,274.000 264.962 C 274.000 265.465,273.640 266.202,273.200 266.600 C 272.760 266.998,272.400 267.480,272.400 267.671 C 272.400 267.861,271.414 269.003,270.209 270.209 C 269.003 271.414,267.861 272.400,267.671 272.400 C 267.480 272.400,266.998 272.760,266.600 273.200 C 266.202 273.640,265.465 274.000,264.962 274.000 C 264.459 274.000,263.936 274.180,263.800 274.400 C 263.664 274.620,262.663 274.800,261.576 274.800 C 260.489 274.800,259.600 274.980,259.600 275.200 C 259.600 275.420,259.240 275.600,258.800 275.600 C 258.360 275.600,258.000 275.420,258.000 275.200 C 258.000 274.980,257.190 274.800,256.200 274.800 C 255.210 274.800,254.400 274.620,254.400 274.400 C 254.400 274.180,253.939 274.000,253.376 274.000 C 252.796 274.000,252.460 273.827,252.600 273.600 C 252.736 273.380,252.478 273.200,252.027 273.200 C 251.576 273.200,250.982 272.840,250.707 272.400 C 250.432 271.960,249.966 271.600,249.671 271.600 C 249.376 271.600,238.257 260.710,224.962 247.400 C 209.525 231.945,200.508 223.200,200.010 223.200 C 199.512 223.200,190.495 231.945,175.058 247.400 C 161.763 260.710,150.662 271.600,150.389 271.600 C 150.117 271.600,149.603 271.915,149.247 272.300 C 148.132 273.506,145.190 274.800,143.562 274.800 C 142.703 274.800,142.000 274.980,142.000 275.200 C 142.000 275.420,141.651 275.600,141.224 275.600 C 140.797 275.600,140.336 275.420,140.200 275.200 C 140.064 274.980,139.053 274.800,137.953 274.800 C 136.721 274.800,136.048 274.646,136.200 274.400 C 136.343 274.169,135.967 274.000,135.312 274.000 C 134.635 274.000,133.944 273.677,133.600 273.200 C 133.283 272.760,132.774 272.400,132.468 272.400 C 131.873 272.400,127.600 268.249,127.600 267.671 C 127.600 267.480,127.240 266.998,126.800 266.600 C 126.350 266.193,126.000 265.368,126.000 264.714 C 126.000 264.042,125.832 263.657,125.600 263.800 C 125.356 263.951,125.200 263.337,125.200 262.224 C 125.200 261.221,125.020 260.400,124.800 260.400 C 124.580 260.400,124.400 259.781,124.400 259.024 C 124.400 258.267,124.580 257.536,124.800 257.400 C 125.020 257.264,125.200 256.533,125.200 255.776 C 125.200 255.019,125.380 254.400,125.600 254.400 C 125.820 254.400,126.000 254.040,126.000 253.600 C 126.000 253.160,126.180 252.800,126.400 252.800 C 126.620 252.800,126.800 252.480,126.800 252.088 C 126.800 251.697,127.160 251.117,127.600 250.800 C 128.040 250.483,128.400 249.987,128.400 249.699 C 128.400 249.411,139.290 238.282,152.600 224.969 C 167.653 209.912,176.800 200.475,176.800 200.001 C 176.800 199.527,167.656 190.096,152.600 175.041 C 139.290 161.732,128.400 150.603,128.400 150.310 C 128.400 150.017,128.040 149.517,127.600 149.200 C 127.160 148.883,126.800 148.293,126.800 147.888 C 126.800 147.484,126.620 147.264,126.400 147.400 C 126.180 147.536,126.000 147.287,126.000 146.847 C 126.000 146.407,125.820 145.936,125.600 145.800 C 125.380 145.664,125.200 144.753,125.200 143.776 C 125.200 142.799,125.020 142.000,124.800 142.000 C 124.580 142.000,124.400 141.460,124.400 140.800 C 124.400 140.140,124.580 139.600,124.800 139.600 C 125.020 139.600,125.200 138.880,125.200 138.000 C 125.200 137.120,125.380 136.400,125.600 136.400 C 125.820 136.400,126.000 135.900,126.000 135.288 C 126.000 134.635,126.330 133.939,126.800 133.600 C 127.240 133.283,127.600 132.781,127.600 132.486 C 127.600 132.190,128.578 130.970,129.774 129.774 C 130.970 128.578,132.190 127.600,132.486 127.600 C 132.781 127.600,133.283 127.240,133.600 126.800 C 133.939 126.330,134.635 126.000,135.288 126.000 C 135.900 126.000,136.400 125.820,136.400 125.600 C 136.400 125.380,137.120 125.200,138.000 125.200 C 138.880 125.200,139.600 125.020,139.600 124.800 C 139.600 124.580,140.140 124.400,140.800 124.400 C 141.460 124.400,142.000 124.580,142.000 124.800 " stroke="none" fill="#ec5454" fill-rule="evenodd"></path><path id="path1" d="M249.600 41.758 C 249.600 41.845,250.305 41.983,251.166 42.065 C 252.028 42.148,252.647 42.076,252.543 41.907 C 252.353 41.600,249.600 41.460,249.600 41.758 M110.900 60.998 C 110.154 61.846,110.296 62.214,111.100 61.514 C 111.485 61.179,112.070 60.805,112.400 60.684 C 112.825 60.528,112.766 60.458,112.200 60.447 C 111.760 60.438,111.175 60.686,110.900 60.998 M60.900 110.998 C 60.625 111.311,60.414 111.889,60.432 112.283 C 60.456 112.841,60.512 112.867,60.684 112.400 C 60.805 112.070,61.179 111.485,61.514 111.100 C 61.850 110.715,61.961 110.407,61.762 110.415 C 61.563 110.424,61.175 110.686,60.900 110.998 M140.100 124.676 C 140.485 124.776,141.115 124.776,141.500 124.676 C 141.885 124.575,141.570 124.493,140.800 124.493 C 140.030 124.493,139.715 124.575,140.100 124.676 M258.000 124.731 C 258.000 124.913,258.540 124.982,259.200 124.885 C 259.860 124.788,260.400 124.640,260.400 124.555 C 260.400 124.470,259.860 124.400,259.200 124.400 C 258.540 124.400,258.000 124.549,258.000 124.731 M124.493 140.800 C 124.493 141.570,124.575 141.885,124.676 141.500 C 124.776 141.115,124.776 140.485,124.676 140.100 C 124.575 139.715,124.493 140.030,124.493 140.800 M275.115 140.800 C 275.018 141.460,275.087 142.000,275.269 142.000 C 275.451 142.000,275.600 141.460,275.600 140.800 C 275.600 140.140,275.530 139.600,275.445 139.600 C 275.360 139.600,275.212 140.140,275.115 140.800 M260.889 161.058 C 260.167 161.796,259.729 162.400,259.914 162.400 C 260.337 162.400,262.602 160.060,262.371 159.862 C 262.277 159.782,261.610 160.320,260.889 161.058 M244.086 177.854 C 243.583 178.374,243.330 178.800,243.524 178.800 C 243.948 178.800,245.397 177.255,245.164 177.051 C 245.074 176.972,244.589 177.333,244.086 177.854 M227.686 194.254 C 227.183 194.774,226.930 195.200,227.124 195.200 C 227.548 195.200,228.997 193.655,228.764 193.451 C 228.674 193.372,228.189 193.733,227.686 194.254 M194.086 227.854 C 193.583 228.374,193.330 228.800,193.524 228.800 C 193.948 228.800,195.397 227.255,195.164 227.051 C 195.074 226.972,194.589 227.333,194.086 227.854 M177.686 244.254 C 177.183 244.774,176.930 245.200,177.124 245.200 C 177.548 245.200,178.997 243.655,178.764 243.451 C 178.674 243.372,178.189 243.733,177.686 244.254 M41.600 250.976 C 41.600 251.733,41.738 252.438,41.907 252.543 C 42.076 252.647,42.148 252.028,42.065 251.166 C 41.881 249.232,41.600 249.118,41.600 250.976 M354.950 255.387 C 354.826 255.710,354.817 256.205,354.931 256.487 C 355.044 256.769,355.151 256.610,355.168 256.133 C 355.186 255.657,355.425 255.176,355.700 255.065 C 356.092 254.907,356.089 254.856,355.687 254.832 C 355.406 254.814,355.074 255.064,354.950 255.387 M124.558 257.766 C 124.438 258.078,124.405 258.843,124.484 259.466 C 124.602 260.391,124.664 260.287,124.825 258.900 C 125.027 257.151,124.938 256.775,124.558 257.766 M275.180 258.910 C 275.375 260.558,275.383 260.567,275.519 259.249 C 275.596 258.506,275.506 257.746,275.320 257.560 C 275.133 257.373,275.071 257.981,275.180 258.910 M160.889 261.058 C 160.167 261.796,159.729 262.400,159.914 262.400 C 160.337 262.400,162.602 260.060,162.371 259.862 C 162.277 259.782,161.610 260.320,160.889 261.058 M140.262 275.300 C 140.364 275.465,140.797 275.600,141.224 275.600 C 141.651 275.600,142.000 275.465,142.000 275.300 C 142.000 275.135,141.567 275.000,141.038 275.000 C 140.509 275.000,140.160 275.135,140.262 275.300 M255.067 355.067 C 254.920 355.213,254.803 355.528,254.806 355.767 C 254.810 356.060,254.907 356.053,255.106 355.746 C 255.268 355.497,255.760 355.203,256.200 355.093 C 256.974 354.899,256.973 354.891,256.167 354.846 C 255.708 354.821,255.213 354.920,255.067 355.067 " stroke="none" fill="#f05454" fill-rule="evenodd"></path><path id="path2" d="M249.600 41.758 C 249.600 41.845,250.305 41.983,251.166 42.065 C 252.028 42.148,252.647 42.076,252.543 41.907 C 252.353 41.600,249.600 41.460,249.600 41.758 M110.900 60.998 C 110.154 61.846,110.296 62.214,111.100 61.514 C 111.485 61.179,112.070 60.805,112.400 60.684 C 112.825 60.528,112.766 60.458,112.200 60.447 C 111.760 60.438,111.175 60.686,110.900 60.998 M60.900 110.998 C 60.625 111.311,60.414 111.889,60.432 112.283 C 60.456 112.841,60.512 112.867,60.684 112.400 C 60.805 112.070,61.179 111.485,61.514 111.100 C 61.850 110.715,61.961 110.407,61.762 110.415 C 61.563 110.424,61.175 110.686,60.900 110.998 M140.100 124.676 C 140.485 124.776,141.115 124.776,141.500 124.676 C 141.885 124.575,141.570 124.493,140.800 124.493 C 140.030 124.493,139.715 124.575,140.100 124.676 M258.000 124.731 C 258.000 124.913,258.540 124.982,259.200 124.885 C 259.860 124.788,260.400 124.640,260.400 124.555 C 260.400 124.470,259.860 124.400,259.200 124.400 C 258.540 124.400,258.000 124.549,258.000 124.731 M124.493 140.800 C 124.493 141.570,124.575 141.885,124.676 141.500 C 124.776 141.115,124.776 140.485,124.676 140.100 C 124.575 139.715,124.493 140.030,124.493 140.800 M275.115 140.800 C 275.018 141.460,275.087 142.000,275.269 142.000 C 275.451 142.000,275.600 141.460,275.600 140.800 C 275.600 140.140,275.530 139.600,275.445 139.600 C 275.360 139.600,275.212 140.140,275.115 140.800 M260.889 161.058 C 260.167 161.796,259.729 162.400,259.914 162.400 C 260.337 162.400,262.602 160.060,262.371 159.862 C 262.277 159.782,261.610 160.320,260.889 161.058 M244.086 177.854 C 243.583 178.374,243.330 178.800,243.524 178.800 C 243.948 178.800,245.397 177.255,245.164 177.051 C 245.074 176.972,244.589 177.333,244.086 177.854 M227.686 194.254 C 227.183 194.774,226.930 195.200,227.124 195.200 C 227.548 195.200,228.997 193.655,228.764 193.451 C 228.674 193.372,228.189 193.733,227.686 194.254 M194.086 227.854 C 193.583 228.374,193.330 228.800,193.524 228.800 C 193.948 228.800,195.397 227.255,195.164 227.051 C 195.074 226.972,194.589 227.333,194.086 227.854 M177.686 244.254 C 177.183 244.774,176.930 245.200,177.124 245.200 C 177.548 245.200,178.997 243.655,178.764 243.451 C 178.674 243.372,178.189 243.733,177.686 244.254 M41.600 250.976 C 41.600 251.733,41.738 252.438,41.907 252.543 C 42.076 252.647,42.148 252.028,42.065 251.166 C 41.881 249.232,41.600 249.118,41.600 250.976 M354.950 255.387 C 354.826 255.710,354.817 256.205,354.931 256.487 C 355.044 256.769,355.151 256.610,355.168 256.133 C 355.186 255.657,355.425 255.176,355.700 255.065 C 356.092 254.907,356.089 254.856,355.687 254.832 C 355.406 254.814,355.074 255.064,354.950 255.387 M124.558 257.766 C 124.438 258.078,124.405 258.843,124.484 259.466 C 124.602 260.391,124.664 260.287,124.825 258.900 C 125.027 257.151,124.938 256.775,124.558 257.766 M275.180 258.910 C 275.375 260.558,275.383 260.567,275.519 259.249 C 275.596 258.506,275.506 257.746,275.320 257.560 C 275.133 257.373,275.071 257.981,275.180 258.910 M160.889 261.058 C 160.167 261.796,159.729 262.400,159.914 262.400 C 160.337 262.400,162.602 260.060,162.371 259.862 C 162.277 259.782,161.610 260.320,160.889 261.058 M140.262 275.300 C 140.364 275.465,140.797 275.600,141.224 275.600 C 141.651 275.600,142.000 275.465,142.000 275.300 C 142.000 275.135,141.567 275.000,141.038 275.000 C 140.509 275.000,140.160 275.135,140.262 275.300 M255.067 355.067 C 254.920 355.213,254.803 355.528,254.806 355.767 C 254.810 356.060,254.907 356.053,255.106 355.746 C 255.268 355.497,255.760 355.203,256.200 355.093 C 256.974 354.899,256.973 354.891,256.167 354.846 C 255.708 354.821,255.213 354.920,255.067 355.067 " stroke="none" fill="#f05454" fill-rule="evenodd"></path><path id="path3" d="M249.600 41.758 C 249.600 41.845,250.305 41.983,251.166 42.065 C 252.028 42.148,252.647 42.076,252.543 41.907 C 252.353 41.600,249.600 41.460,249.600 41.758 M110.900 60.998 C 110.154 61.846,110.296 62.214,111.100 61.514 C 111.485 61.179,112.070 60.805,112.400 60.684 C 112.825 60.528,112.766 60.458,112.200 60.447 C 111.760 60.438,111.175 60.686,110.900 60.998 M60.900 110.998 C 60.625 111.311,60.414 111.889,60.432 112.283 C 60.456 112.841,60.512 112.867,60.684 112.400 C 60.805 112.070,61.179 111.485,61.514 111.100 C 61.850 110.715,61.961 110.407,61.762 110.415 C 61.563 110.424,61.175 110.686,60.900 110.998 M140.100 124.676 C 140.485 124.776,141.115 124.776,141.500 124.676 C 141.885 124.575,141.570 124.493,140.800 124.493 C 140.030 124.493,139.715 124.575,140.100 124.676 M258.000 124.731 C 258.000 124.913,258.540 124.982,259.200 124.885 C 259.860 124.788,260.400 124.640,260.400 124.555 C 260.400 124.470,259.860 124.400,259.200 124.400 C 258.540 124.400,258.000 124.549,258.000 124.731 M124.493 140.800 C 124.493 141.570,124.575 141.885,124.676 141.500 C 124.776 141.115,124.776 140.485,124.676 140.100 C 124.575 139.715,124.493 140.030,124.493 140.800 M275.115 140.800 C 275.018 141.460,275.087 142.000,275.269 142.000 C 275.451 142.000,275.600 141.460,275.600 140.800 C 275.600 140.140,275.530 139.600,275.445 139.600 C 275.360 139.600,275.212 140.140,275.115 140.800 M260.889 161.058 C 260.167 161.796,259.729 162.400,259.914 162.400 C 260.337 162.400,262.602 160.060,262.371 159.862 C 262.277 159.782,261.610 160.320,260.889 161.058 M244.086 177.854 C 243.583 178.374,243.330 178.800,243.524 178.800 C 243.948 178.800,245.397 177.255,245.164 177.051 C 245.074 176.972,244.589 177.333,244.086 177.854 M227.686 194.254 C 227.183 194.774,226.930 195.200,227.124 195.200 C 227.548 195.200,228.997 193.655,228.764 193.451 C 228.674 193.372,228.189 193.733,227.686 194.254 M194.086 227.854 C 193.583 228.374,193.330 228.800,193.524 228.800 C 193.948 228.800,195.397 227.255,195.164 227.051 C 195.074 226.972,194.589 227.333,194.086 227.854 M177.686 244.254 C 177.183 244.774,176.930 245.200,177.124 245.200 C 177.548 245.200,178.997 243.655,178.764 243.451 C 178.674 243.372,178.189 243.733,177.686 244.254 M41.600 250.976 C 41.600 251.733,41.738 252.438,41.907 252.543 C 42.076 252.647,42.148 252.028,42.065 251.166 C 41.881 249.232,41.600 249.118,41.600 250.976 M354.950 255.387 C 354.826 255.710,354.817 256.205,354.931 256.487 C 355.044 256.769,355.151 256.610,355.168 256.133 C 355.186 255.657,355.425 255.176,355.700 255.065 C 356.092 254.907,356.089 254.856,355.687 254.832 C 355.406 254.814,355.074 255.064,354.950 255.387 M124.558 257.766 C 124.438 258.078,124.405 258.843,124.484 259.466 C 124.602 260.391,124.664 260.287,124.825 258.900 C 125.027 257.151,124.938 256.775,124.558 257.766 M275.180 258.910 C 275.375 260.558,275.383 260.567,275.519 259.249 C 275.596 258.506,275.506 257.746,275.320 257.560 C 275.133 257.373,275.071 257.981,275.180 258.910 M160.889 261.058 C 160.167 261.796,159.729 262.400,159.914 262.400 C 160.337 262.400,162.602 260.060,162.371 259.862 C 162.277 259.782,161.610 260.320,160.889 261.058 M140.262 275.300 C 140.364 275.465,140.797 275.600,141.224 275.600 C 141.651 275.600,142.000 275.465,142.000 275.300 C 142.000 275.135,141.567 275.000,141.038 275.000 C 140.509 275.000,140.160 275.135,140.262 275.300 M255.067 355.067 C 254.920 355.213,254.803 355.528,254.806 355.767 C 254.810 356.060,254.907 356.053,255.106 355.746 C 255.268 355.497,255.760 355.203,256.200 355.093 C 256.974 354.899,256.973 354.891,256.167 354.846 C 255.708 354.821,255.213 354.920,255.067 355.067 " stroke="none" fill="#f05454" fill-rule="evenodd"></path><path id="path4" d="M249.600 41.758 C 249.600 41.845,250.305 41.983,251.166 42.065 C 252.028 42.148,252.647 42.076,252.543 41.907 C 252.353 41.600,249.600 41.460,249.600 41.758 M110.900 60.998 C 110.154 61.846,110.296 62.214,111.100 61.514 C 111.485 61.179,112.070 60.805,112.400 60.684 C 112.825 60.528,112.766 60.458,112.200 60.447 C 111.760 60.438,111.175 60.686,110.900 60.998 M60.900 110.998 C 60.625 111.311,60.414 111.889,60.432 112.283 C 60.456 112.841,60.512 112.867,60.684 112.400 C 60.805 112.070,61.179 111.485,61.514 111.100 C 61.850 110.715,61.961 110.407,61.762 110.415 C 61.563 110.424,61.175 110.686,60.900 110.998 M140.100 124.676 C 140.485 124.776,141.115 124.776,141.500 124.676 C 141.885 124.575,141.570 124.493,140.800 124.493 C 140.030 124.493,139.715 124.575,140.100 124.676 M258.000 124.731 C 258.000 124.913,258.540 124.982,259.200 124.885 C 259.860 124.788,260.400 124.640,260.400 124.555 C 260.400 124.470,259.860 124.400,259.200 124.400 C 258.540 124.400,258.000 124.549,258.000 124.731 M124.493 140.800 C 124.493 141.570,124.575 141.885,124.676 141.500 C 124.776 141.115,124.776 140.485,124.676 140.100 C 124.575 139.715,124.493 140.030,124.493 140.800 M275.115 140.800 C 275.018 141.460,275.087 142.000,275.269 142.000 C 275.451 142.000,275.600 141.460,275.600 140.800 C 275.600 140.140,275.530 139.600,275.445 139.600 C 275.360 139.600,275.212 140.140,275.115 140.800 M260.889 161.058 C 260.167 161.796,259.729 162.400,259.914 162.400 C 260.337 162.400,262.602 160.060,262.371 159.862 C 262.277 159.782,261.610 160.320,260.889 161.058 M244.086 177.854 C 243.583 178.374,243.330 178.800,243.524 178.800 C 243.948 178.800,245.397 177.255,245.164 177.051 C 245.074 176.972,244.589 177.333,244.086 177.854 M227.686 194.254 C 227.183 194.774,226.930 195.200,227.124 195.200 C 227.548 195.200,228.997 193.655,228.764 193.451 C 228.674 193.372,228.189 193.733,227.686 194.254 M194.086 227.854 C 193.583 228.374,193.330 228.800,193.524 228.800 C 193.948 228.800,195.397 227.255,195.164 227.051 C 195.074 226.972,194.589 227.333,194.086 227.854 M177.686 244.254 C 177.183 244.774,176.930 245.200,177.124 245.200 C 177.548 245.200,178.997 243.655,178.764 243.451 C 178.674 243.372,178.189 243.733,177.686 244.254 M41.600 250.976 C 41.600 251.733,41.738 252.438,41.907 252.543 C 42.076 252.647,42.148 252.028,42.065 251.166 C 41.881 249.232,41.600 249.118,41.600 250.976 M354.950 255.387 C 354.826 255.710,354.817 256.205,354.931 256.487 C 355.044 256.769,355.151 256.610,355.168 256.133 C 355.186 255.657,355.425 255.176,355.700 255.065 C 356.092 254.907,356.089 254.856,355.687 254.832 C 355.406 254.814,355.074 255.064,354.950 255.387 M124.558 257.766 C 124.438 258.078,124.405 258.843,124.484 259.466 C 124.602 260.391,124.664 260.287,124.825 258.900 C 125.027 257.151,124.938 256.775,124.558 257.766 M275.180 258.910 C 275.375 260.558,275.383 260.567,275.519 259.249 C 275.596 258.506,275.506 257.746,275.320 257.560 C 275.133 257.373,275.071 257.981,275.180 258.910 M160.889 261.058 C 160.167 261.796,159.729 262.400,159.914 262.400 C 160.337 262.400,162.602 260.060,162.371 259.862 C 162.277 259.782,161.610 260.320,160.889 261.058 M140.262 275.300 C 140.364 275.465,140.797 275.600,141.224 275.600 C 141.651 275.600,142.000 275.465,142.000 275.300 C 142.000 275.135,141.567 275.000,141.038 275.000 C 140.509 275.000,140.160 275.135,140.262 275.300 M255.067 355.067 C 254.920 355.213,254.803 355.528,254.806 355.767 C 254.810 356.060,254.907 356.053,255.106 355.746 C 255.268 355.497,255.760 355.203,256.200 355.093 C 256.974 354.899,256.973 354.891,256.167 354.846 C 255.708 354.821,255.213 354.920,255.067 355.067 " stroke="none" fill="#f05454" fill-rule="evenodd"></path></g></svg>