<svg id="svg" version="1.1" xmlns="http://www.w3.org/2000/svg" xmlns:xlink="http://www.w3.org/1999/xlink" width="400" height="400" viewBox="0, 0, 400,400"><g id="svgg"><path id="path0" d="M178.700 0.273 C 176.555 0.359,174.800 0.602,174.800 0.814 C 174.800 1.027,173.540 1.200,172.000 1.200 C 170.400 1.200,169.200 1.371,169.200 1.600 C 169.200 1.822,168.133 2.000,166.800 2.000 C 165.467 2.000,164.400 2.178,164.400 2.400 C 164.400 2.623,163.325 2.800,161.976 2.800 C 160.463 2.800,159.646 2.950,159.800 3.200 C 159.949 3.442,159.404 3.600,158.424 3.600 C 157.531 3.600,156.800 3.780,156.800 4.000 C 156.800 4.220,155.900 4.400,154.800 4.400 C 153.700 4.400,152.800 4.580,152.800 4.800 C 152.800 5.020,152.080 5.200,151.200 5.200 C 150.320 5.200,149.600 5.380,149.600 5.600 C 149.600 5.820,148.880 6.000,148.000 6.000 C 147.120 6.000,146.400 6.180,146.400 6.400 C 146.400 6.620,145.860 6.800,145.200 6.800 C 144.540 6.800,144.000 6.980,144.000 7.200 C 144.000 7.420,143.370 7.600,142.600 7.600 C 141.830 7.600,141.200 7.757,141.200 7.948 C 141.200 8.140,140.265 8.421,139.123 8.572 C 137.981 8.724,136.856 8.971,136.623 9.121 C 135.817 9.640,133.396 10.388,132.500 10.394 C 132.005 10.397,131.600 10.580,131.600 10.800 C 131.600 11.020,131.240 11.200,130.800 11.200 C 130.360 11.200,130.000 11.380,130.000 11.600 C 130.000 11.820,129.561 12.000,129.024 12.000 C 128.487 12.000,127.936 12.180,127.800 12.400 C 127.664 12.620,127.193 12.800,126.753 12.800 C 126.313 12.800,126.064 12.980,126.200 13.200 C 126.344 13.433,125.937 13.600,125.224 13.600 C 124.551 13.600,124.000 13.780,124.000 14.000 C 124.000 14.220,123.460 14.400,122.800 14.400 C 122.140 14.400,121.600 14.580,121.600 14.800 C 121.600 15.020,121.240 15.200,120.800 15.200 C 120.360 15.200,120.000 15.380,120.000 15.600 C 120.000 15.820,119.640 16.000,119.200 16.000 C 118.760 16.000,118.400 16.180,118.400 16.400 C 118.400 16.620,118.040 16.800,117.600 16.800 C 117.160 16.800,116.800 16.980,116.800 17.200 C 116.800 17.420,116.440 17.600,116.000 17.600 C 115.560 17.600,115.200 17.780,115.200 18.000 C 115.200 18.220,114.660 18.400,114.000 18.400 C 113.340 18.400,112.800 18.580,112.800 18.800 C 112.800 19.020,112.440 19.200,112.000 19.200 C 111.560 19.200,111.200 19.380,111.200 19.600 C 111.200 19.820,110.840 20.000,110.400 20.000 C 109.960 20.000,109.600 20.180,109.600 20.400 C 109.600 20.620,109.330 20.800,109.000 20.800 C 108.670 20.800,108.400 20.980,108.400 21.200 C 108.400 21.420,108.080 21.600,107.688 21.600 C 107.297 21.600,106.717 21.960,106.400 22.400 C 106.083 22.840,105.503 23.200,105.112 23.200 C 104.720 23.200,104.400 23.380,104.400 23.600 C 104.400 23.820,104.040 24.000,103.600 24.000 C 103.160 24.000,102.800 24.180,102.800 24.400 C 102.800 24.620,102.440 24.800,102.000 24.800 C 101.560 24.800,101.200 25.001,101.200 25.247 C 101.200 25.492,100.852 25.602,100.426 25.491 C 99.987 25.376,99.562 25.521,99.446 25.825 C 99.332 26.120,98.432 26.730,97.444 27.180 C 96.457 27.630,95.537 28.179,95.400 28.400 C 95.263 28.621,94.343 29.170,93.356 29.620 C 92.368 30.070,91.460 30.700,91.337 31.019 C 91.215 31.339,90.813 31.600,90.446 31.600 C 90.078 31.600,89.517 31.960,89.200 32.400 C 88.883 32.840,88.343 33.200,88.000 33.200 C 87.657 33.200,87.117 33.560,86.800 34.000 C 86.483 34.440,85.975 34.800,85.672 34.800 C 85.369 34.800,84.617 35.340,84.000 36.000 C 83.383 36.660,82.631 37.200,82.328 37.200 C 82.025 37.200,81.517 37.560,81.200 38.000 C 80.883 38.440,80.387 38.800,80.098 38.800 C 79.416 38.800,76.773 41.440,77.114 41.781 C 77.258 41.925,77.074 41.927,76.706 41.785 C 76.243 41.608,75.555 42.034,74.480 43.164 C 73.624 44.064,72.706 44.800,72.440 44.800 C 72.174 44.800,70.896 45.880,69.600 47.200 C 68.304 48.520,67.042 49.600,66.794 49.600 C 66.547 49.600,64.559 51.445,62.376 53.700 C 57.602 58.633,58.633 57.602,53.700 62.376 C 51.445 64.559,49.600 66.547,49.600 66.794 C 49.600 67.042,48.520 68.304,47.200 69.600 C 45.880 70.896,44.800 72.174,44.800 72.440 C 44.800 72.706,44.064 73.624,43.164 74.480 C 42.034 75.555,41.608 76.243,41.785 76.706 C 41.927 77.074,41.925 77.258,41.781 77.114 C 41.440 76.773,38.800 79.416,38.800 80.098 C 38.800 80.387,38.440 80.883,38.000 81.200 C 37.560 81.517,37.200 82.025,37.200 82.328 C 37.200 82.631,36.660 83.383,36.000 84.000 C 35.340 84.617,34.800 85.369,34.800 85.672 C 34.800 85.975,34.440 86.483,34.000 86.800 C 33.560 87.117,33.200 87.657,33.200 88.000 C 33.200 88.343,32.840 88.883,32.400 89.200 C 31.960 89.517,31.600 90.078,31.600 90.446 C 31.600 90.813,31.339 91.215,31.019 91.337 C 30.700 91.460,30.070 92.368,29.620 93.356 C 29.170 94.343,28.621 95.263,28.400 95.400 C 28.179 95.537,27.630 96.457,27.180 97.444 C 26.730 98.432,26.120 99.332,25.825 99.446 C 25.521 99.562,25.376 99.987,25.491 100.426 C 25.602 100.852,25.492 101.200,25.247 101.200 C 25.001 101.200,24.800 101.560,24.800 102.000 C 24.800 102.440,24.620 102.800,24.400 102.800 C 24.180 102.800,24.000 103.160,24.000 103.600 C 24.000 104.040,23.820 104.400,23.600 104.400 C 23.380 104.400,23.200 104.720,23.200 105.112 C 23.200 105.503,22.840 106.083,22.400 106.400 C 21.960 106.717,21.600 107.297,21.600 107.688 C 21.600 108.080,21.420 108.400,21.200 108.400 C 20.980 108.400,20.800 108.670,20.800 109.000 C 20.800 109.330,20.620 109.600,20.400 109.600 C 20.180 109.600,20.000 109.960,20.000 110.400 C 20.000 110.840,19.820 111.200,19.600 111.200 C 19.380 111.200,19.200 111.560,19.200 112.000 C 19.200 112.440,19.020 112.800,18.800 112.800 C 18.580 112.800,18.400 113.340,18.400 114.000 C 18.400 114.660,18.220 115.200,18.000 115.200 C 17.780 115.200,17.600 115.560,17.600 116.000 C 17.600 116.440,17.420 116.800,17.200 116.800 C 16.980 116.800,16.800 117.160,16.800 117.600 C 16.800 118.040,16.620 118.400,16.400 118.400 C 16.180 118.400,16.000 118.760,16.000 119.200 C 16.000 119.640,15.820 120.000,15.600 120.000 C 15.380 120.000,15.200 120.360,15.200 120.800 C 15.200 121.240,15.020 121.600,14.800 121.600 C 14.580 121.600,14.400 122.140,14.400 122.800 C 14.400 123.460,14.220 124.000,14.000 124.000 C 13.780 124.000,13.600 124.551,13.600 125.224 C 13.600 125.937,13.433 126.344,13.200 126.200 C 12.980 126.064,12.800 126.313,12.800 126.753 C 12.800 127.193,12.620 127.664,12.400 127.800 C 12.180 127.936,12.000 128.487,12.000 129.024 C 12.000 129.561,11.820 130.000,11.600 130.000 C 11.380 130.000,11.200 130.360,11.200 130.800 C 11.200 131.240,11.020 131.600,10.800 131.600 C 10.580 131.600,10.397 132.005,10.394 132.500 C 10.388 133.396,9.640 135.817,9.121 136.623 C 8.971 136.856,8.724 137.981,8.572 139.123 C 8.421 140.265,8.140 141.200,7.948 141.200 C 7.757 141.200,7.600 141.830,7.600 142.600 C 7.600 143.370,7.420 144.000,7.200 144.000 C 6.980 144.000,6.800 144.540,6.800 145.200 C 6.800 145.860,6.620 146.400,6.400 146.400 C 6.180 146.400,6.000 147.120,6.000 148.000 C 6.000 148.880,5.820 149.600,5.600 149.600 C 5.380 149.600,5.200 150.320,5.200 151.200 C 5.200 152.080,5.020 152.800,4.800 152.800 C 4.580 152.800,4.400 153.700,4.400 154.800 C 4.400 155.900,4.220 156.800,4.000 156.800 C 3.780 156.800,3.600 157.531,3.600 158.424 C 3.600 159.404,3.442 159.949,3.200 159.800 C 2.950 159.646,2.800 160.463,2.800 161.976 C 2.800 163.325,2.623 164.400,2.400 164.400 C 2.178 164.400,2.000 165.467,2.000 166.800 C 2.000 168.133,1.822 169.200,1.600 169.200 C 1.372 169.200,1.200 170.389,1.200 171.967 C 1.200 173.824,1.036 174.788,0.700 174.900 C -0.032 175.144,-0.032 224.856,0.700 225.100 C 1.036 225.212,1.200 226.176,1.200 228.033 C 1.200 229.611,1.372 230.800,1.600 230.800 C 1.822 230.800,2.000 231.867,2.000 233.200 C 2.000 234.533,2.178 235.600,2.400 235.600 C 2.622 235.600,2.800 236.667,2.800 238.000 C 2.800 239.333,2.978 240.400,3.200 240.400 C 3.420 240.400,3.600 241.030,3.600 241.800 C 3.600 242.570,3.780 243.200,4.000 243.200 C 4.220 243.200,4.400 244.100,4.400 245.200 C 4.400 246.300,4.580 247.200,4.800 247.200 C 5.020 247.200,5.200 247.920,5.200 248.800 C 5.200 249.680,5.380 250.400,5.600 250.400 C 5.820 250.400,6.000 251.120,6.000 252.000 C 6.000 252.880,6.180 253.600,6.400 253.600 C 6.620 253.600,6.800 254.140,6.800 254.800 C 6.800 255.460,6.980 256.000,7.200 256.000 C 7.420 256.000,7.600 256.630,7.600 257.400 C 7.600 258.170,7.757 258.800,7.948 258.800 C 8.140 258.800,8.421 259.735,8.572 260.877 C 8.724 262.019,8.971 263.144,9.121 263.377 C 9.640 264.183,10.388 266.604,10.394 267.500 C 10.397 267.995,10.580 268.400,10.800 268.400 C 11.020 268.400,11.200 268.760,11.200 269.200 C 11.200 269.640,11.380 270.000,11.600 270.000 C 11.820 270.000,12.000 270.540,12.000 271.200 C 12.000 271.860,12.180 272.400,12.400 272.400 C 12.620 272.400,12.800 272.760,12.800 273.200 C 12.800 273.640,12.980 274.000,13.200 274.000 C 13.420 274.000,13.600 274.450,13.600 275.000 C 13.600 275.550,13.780 276.000,14.000 276.000 C 14.220 276.000,14.400 276.540,14.400 277.200 C 14.400 277.860,14.580 278.400,14.800 278.400 C 15.020 278.400,15.200 278.760,15.200 279.200 C 15.200 279.640,15.380 280.000,15.600 280.000 C 15.820 280.000,16.000 280.360,16.000 280.800 C 16.000 281.240,16.180 281.600,16.400 281.600 C 16.620 281.600,16.800 281.960,16.800 282.400 C 16.800 282.840,16.980 283.200,17.200 283.200 C 17.420 283.200,17.600 283.560,17.600 284.000 C 17.600 284.440,17.780 284.800,18.000 284.800 C 18.220 284.800,18.400 285.340,18.400 286.000 C 18.400 286.660,18.580 287.200,18.800 287.200 C 19.020 287.200,19.200 287.560,19.200 288.000 C 19.200 288.440,19.380 288.800,19.600 288.800 C 19.820 288.800,20.000 289.160,20.000 289.600 C 20.000 290.040,20.180 290.400,20.400 290.400 C 20.620 290.400,20.800 290.670,20.800 291.000 C 20.800 291.330,20.980 291.600,21.200 291.600 C 21.420 291.600,21.600 291.920,21.600 292.312 C 21.600 292.703,21.960 293.283,22.400 293.600 C 22.840 293.917,23.200 294.497,23.200 294.888 C 23.200 295.280,23.380 295.600,23.600 295.600 C 23.820 295.600,24.000 295.960,24.000 296.400 C 24.000 296.840,24.180 297.200,24.400 297.200 C 24.620 297.200,24.800 297.560,24.800 298.000 C 24.800 298.440,25.001 298.800,25.247 298.800 C 25.492 298.800,25.602 299.148,25.491 299.574 C 25.379 300.000,25.518 300.437,25.800 300.545 C 26.341 300.752,27.600 303.010,27.600 303.773 C 27.600 304.021,27.960 304.483,28.400 304.800 C 28.840 305.117,29.200 305.697,29.200 306.088 C 29.200 306.480,29.380 306.800,29.600 306.800 C 29.820 306.800,30.000 307.190,30.000 307.667 C 30.000 308.143,30.111 308.422,30.248 308.286 C 30.581 307.953,31.600 309.006,31.600 309.683 C 31.600 309.980,31.960 310.483,32.400 310.800 C 32.840 311.117,33.200 311.657,33.200 312.000 C 33.200 312.343,33.560 312.883,34.000 313.200 C 34.440 313.517,34.800 314.025,34.800 314.328 C 34.800 314.631,35.340 315.383,36.000 316.000 C 36.660 316.617,37.200 317.369,37.200 317.672 C 37.200 317.975,37.560 318.483,38.000 318.800 C 38.440 319.117,38.800 319.615,38.800 319.906 C 38.800 320.514,40.616 322.451,40.910 322.157 C 41.016 322.050,41.225 322.444,41.372 323.031 C 41.520 323.619,42.351 324.763,43.220 325.573 C 44.089 326.384,44.800 327.271,44.800 327.545 C 44.800 327.820,45.880 329.104,47.200 330.400 C 48.520 331.696,49.600 332.952,49.600 333.192 C 49.600 333.526,53.981 338.019,58.104 341.913 C 58.271 342.071,60.194 344.045,62.376 346.300 C 64.559 348.555,66.547 350.400,66.794 350.400 C 67.042 350.400,68.304 351.480,69.600 352.800 C 70.896 354.120,72.160 355.200,72.409 355.200 C 72.659 355.200,73.554 355.920,74.400 356.800 C 75.246 357.680,76.125 358.400,76.355 358.400 C 76.585 358.400,77.403 359.030,78.173 359.800 C 78.943 360.570,79.810 361.200,80.098 361.200 C 80.387 361.200,80.883 361.560,81.200 362.000 C 81.517 362.440,82.025 362.800,82.328 362.800 C 82.631 362.800,83.383 363.340,84.000 364.000 C 84.617 364.660,85.369 365.200,85.672 365.200 C 85.975 365.200,86.483 365.560,86.800 366.000 C 87.117 366.440,87.657 366.800,88.000 366.800 C 88.343 366.800,88.883 367.160,89.200 367.600 C 89.517 368.040,90.078 368.400,90.446 368.400 C 90.813 368.400,91.213 368.656,91.333 368.970 C 91.453 369.283,92.238 369.859,93.076 370.249 C 93.914 370.640,94.891 371.283,95.247 371.680 C 95.603 372.076,96.188 372.400,96.547 372.400 C 96.906 372.400,97.200 372.580,97.200 372.800 C 97.200 373.020,97.520 373.200,97.912 373.200 C 98.303 373.200,98.875 373.550,99.183 373.977 C 99.491 374.404,100.431 374.870,101.272 375.012 C 102.112 375.154,102.800 375.434,102.800 375.635 C 102.800 375.836,103.160 376.000,103.600 376.000 C 104.040 376.000,104.400 376.180,104.400 376.400 C 104.400 376.620,104.720 376.800,105.112 376.800 C 105.503 376.800,106.083 377.160,106.400 377.600 C 106.717 378.040,107.297 378.400,107.688 378.400 C 108.080 378.400,108.400 378.580,108.400 378.800 C 108.400 379.020,108.670 379.200,109.000 379.200 C 109.330 379.200,109.600 379.380,109.600 379.600 C 109.600 379.820,109.960 380.000,110.400 380.000 C 110.840 380.000,111.200 380.180,111.200 380.400 C 111.200 380.620,111.560 380.800,112.000 380.800 C 112.440 380.800,112.800 380.980,112.800 381.200 C 112.800 381.420,113.340 381.600,114.000 381.600 C 114.660 381.600,115.200 381.780,115.200 382.000 C 115.200 382.220,115.560 382.400,116.000 382.400 C 116.440 382.400,116.800 382.580,116.800 382.800 C 116.800 383.020,117.160 383.200,117.600 383.200 C 118.040 383.200,118.400 383.380,118.400 383.600 C 118.400 383.820,118.760 384.000,119.200 384.000 C 119.640 384.000,120.000 384.180,120.000 384.400 C 120.000 384.620,120.360 384.800,120.800 384.800 C 121.240 384.800,121.600 384.980,121.600 385.200 C 121.600 385.420,122.140 385.600,122.800 385.600 C 123.460 385.600,124.000 385.780,124.000 386.000 C 124.000 386.220,124.551 386.400,125.224 386.400 C 125.937 386.400,126.344 386.567,126.200 386.800 C 126.064 387.020,126.323 387.200,126.776 387.200 C 127.229 387.200,127.600 387.380,127.600 387.600 C 127.600 387.820,128.140 388.000,128.800 388.000 C 129.460 388.000,130.000 388.180,130.000 388.400 C 130.000 388.620,130.360 388.800,130.800 388.800 C 131.240 388.800,131.600 388.980,131.600 389.200 C 131.600 389.420,132.140 389.600,132.800 389.600 C 133.460 389.600,134.000 389.780,134.000 390.000 C 134.000 390.220,134.540 390.400,135.200 390.400 C 135.860 390.400,136.400 390.562,136.400 390.761 C 136.400 390.959,137.480 391.247,138.800 391.400 C 140.120 391.553,141.200 391.841,141.200 392.039 C 141.200 392.238,141.830 392.400,142.600 392.400 C 143.370 392.400,144.000 392.580,144.000 392.800 C 144.000 393.020,144.540 393.200,145.200 393.200 C 145.860 393.200,146.400 393.380,146.400 393.600 C 146.400 393.820,147.120 394.000,148.000 394.000 C 148.880 394.000,149.600 394.180,149.600 394.400 C 149.600 394.620,150.320 394.800,151.200 394.800 C 152.080 394.800,152.800 394.980,152.800 395.200 C 152.800 395.420,153.700 395.600,154.800 395.600 C 155.900 395.600,156.800 395.780,156.800 396.000 C 156.800 396.220,157.531 396.400,158.424 396.400 C 159.404 396.400,159.949 396.558,159.800 396.800 C 159.646 397.050,160.463 397.200,161.976 397.200 C 163.325 397.200,164.400 397.377,164.400 397.600 C 164.400 397.822,165.467 398.000,166.800 398.000 C 168.133 398.000,169.200 398.178,169.200 398.400 C 169.200 398.628,170.389 398.800,171.967 398.800 C 173.824 398.800,174.788 398.964,174.900 399.300 C 175.031 399.693,180.352 399.800,199.713 399.800 C 218.897 399.800,224.471 399.689,224.860 399.300 C 225.162 398.998,226.437 398.800,228.080 398.800 C 229.627 398.800,230.800 398.627,230.800 398.400 C 230.800 398.178,231.867 398.000,233.200 398.000 C 234.533 398.000,235.600 397.822,235.600 397.600 C 235.600 397.378,236.667 397.200,238.000 397.200 C 239.333 397.200,240.400 397.022,240.400 396.800 C 240.400 396.580,241.030 396.400,241.800 396.400 C 242.570 396.400,243.200 396.220,243.200 396.000 C 243.200 395.780,244.100 395.600,245.200 395.600 C 246.300 395.600,247.200 395.420,247.200 395.200 C 247.200 394.980,247.920 394.800,248.800 394.800 C 249.680 394.800,250.400 394.620,250.400 394.400 C 250.400 394.180,251.120 394.000,252.000 394.000 C 252.880 394.000,253.600 393.820,253.600 393.600 C 253.600 393.380,254.140 393.200,254.800 393.200 C 255.460 393.200,256.000 393.020,256.000 392.800 C 256.000 392.580,256.630 392.400,257.400 392.400 C 258.170 392.400,258.800 392.238,258.800 392.039 C 258.800 391.841,259.880 391.553,261.200 391.400 C 262.520 391.247,263.600 390.959,263.600 390.761 C 263.600 390.562,264.140 390.400,264.800 390.400 C 265.460 390.400,266.000 390.220,266.000 390.000 C 266.000 389.780,266.540 389.600,267.200 389.600 C 267.860 389.600,268.400 389.420,268.400 389.200 C 268.400 388.980,268.760 388.800,269.200 388.800 C 269.640 388.800,270.000 388.620,270.000 388.400 C 270.000 388.180,270.540 388.000,271.200 388.000 C 271.860 388.000,272.400 387.820,272.400 387.600 C 272.400 387.380,272.760 387.200,273.200 387.200 C 273.640 387.200,274.000 387.020,274.000 386.800 C 274.000 386.580,274.450 386.400,275.000 386.400 C 275.550 386.400,276.000 386.220,276.000 386.000 C 276.000 385.780,276.540 385.600,277.200 385.600 C 277.860 385.600,278.400 385.420,278.400 385.200 C 278.400 384.980,278.760 384.800,279.200 384.800 C 279.640 384.800,280.000 384.620,280.000 384.400 C 280.000 384.180,280.360 384.000,280.800 384.000 C 281.240 384.000,281.600 383.820,281.600 383.600 C 281.600 383.380,281.960 383.200,282.400 383.200 C 282.840 383.200,283.200 383.020,283.200 382.800 C 283.200 382.580,283.560 382.400,284.000 382.400 C 284.440 382.400,284.800 382.220,284.800 382.000 C 284.800 381.780,285.340 381.600,286.000 381.600 C 286.660 381.600,287.200 381.420,287.200 381.200 C 287.200 380.980,287.560 380.800,288.000 380.800 C 288.440 380.800,288.800 380.620,288.800 380.400 C 288.800 380.180,289.160 380.000,289.600 380.000 C 290.040 380.000,290.400 379.820,290.400 379.600 C 290.400 379.380,290.670 379.200,291.000 379.200 C 291.330 379.200,291.600 379.020,291.600 378.800 C 291.600 378.580,291.920 378.400,292.312 378.400 C 292.703 378.400,293.283 378.040,293.600 377.600 C 293.917 377.160,294.497 376.800,294.888 376.800 C 295.280 376.800,295.600 376.620,295.600 376.400 C 295.600 376.180,295.960 376.000,296.400 376.000 C 296.840 376.000,297.200 375.840,297.200 375.645 C 297.200 375.449,297.798 375.177,298.530 375.040 C 299.261 374.902,300.244 374.432,300.713 373.995 C 301.183 373.558,301.844 373.200,302.183 373.200 C 302.522 373.200,302.800 373.020,302.800 372.800 C 302.800 372.580,303.078 372.400,303.418 372.400 C 303.758 372.400,304.490 371.947,305.044 371.392 C 305.598 370.838,306.220 370.489,306.426 370.616 C 306.632 370.743,306.800 370.657,306.800 370.424 C 306.800 370.191,307.148 370.000,307.573 370.000 C 307.998 370.000,308.460 369.640,308.600 369.200 C 308.740 368.760,309.162 368.400,309.539 368.400 C 309.915 368.400,310.483 368.040,310.800 367.600 C 311.117 367.160,311.657 366.800,312.000 366.800 C 312.343 366.800,312.883 366.440,313.200 366.000 C 313.517 365.560,314.025 365.200,314.328 365.200 C 314.631 365.200,315.383 364.660,316.000 364.000 C 316.617 363.340,317.369 362.800,317.672 362.800 C 317.975 362.800,318.483 362.440,318.800 362.000 C 319.117 361.560,319.613 361.200,319.902 361.200 C 320.190 361.200,321.057 360.570,321.827 359.800 C 322.597 359.030,323.456 358.400,323.737 358.400 C 324.018 358.400,324.867 357.684,325.624 356.809 C 326.381 355.934,327.235 355.214,327.522 355.209 C 327.809 355.204,329.104 354.120,330.400 352.800 C 331.696 351.480,332.949 350.400,333.185 350.400 C 333.774 350.400,338.799 345.333,338.504 345.037 C 338.373 344.907,338.494 344.800,338.773 344.800 C 339.051 344.800,339.801 344.215,340.438 343.500 C 341.865 341.900,341.900 341.865,343.500 340.438 C 344.215 339.801,344.800 339.051,344.800 338.773 C 344.800 338.494,344.907 338.373,345.037 338.504 C 345.333 338.799,350.400 333.774,350.400 333.185 C 350.400 332.949,351.480 331.696,352.800 330.400 C 354.120 329.104,355.204 327.809,355.209 327.522 C 355.214 327.235,355.934 326.381,356.809 325.624 C 357.684 324.867,358.400 324.018,358.400 323.737 C 358.400 323.456,359.030 322.597,359.800 321.827 C 360.570 321.057,361.200 320.190,361.200 319.902 C 361.200 319.613,361.560 319.117,362.000 318.800 C 362.440 318.483,362.800 317.975,362.800 317.672 C 362.800 317.369,363.340 316.617,364.000 316.000 C 364.660 315.383,365.200 314.631,365.200 314.328 C 365.200 314.025,365.560 313.517,366.000 313.200 C 366.440 312.883,366.800 312.343,366.800 312.000 C 366.800 311.657,367.160 311.117,367.600 310.800 C 368.040 310.483,368.400 309.915,368.400 309.539 C 368.400 309.162,368.760 308.740,369.200 308.600 C 369.640 308.460,370.000 307.998,370.000 307.573 C 370.000 307.148,370.191 306.800,370.424 306.800 C 370.657 306.800,370.743 306.632,370.616 306.426 C 370.489 306.220,370.838 305.598,371.392 305.044 C 371.947 304.490,372.400 303.758,372.400 303.418 C 372.400 303.078,372.580 302.800,372.800 302.800 C 373.020 302.800,373.200 302.522,373.200 302.183 C 373.200 301.844,373.558 301.183,373.995 300.713 C 374.432 300.244,374.902 299.261,375.040 298.530 C 375.177 297.798,375.449 297.200,375.645 297.200 C 375.840 297.200,376.000 296.840,376.000 296.400 C 376.000 295.960,376.180 295.600,376.400 295.600 C 376.620 295.600,376.800 295.280,376.800 294.888 C 376.800 294.497,377.160 293.917,377.600 293.600 C 378.040 293.283,378.400 292.703,378.400 292.312 C 378.400 291.920,378.580 291.600,378.800 291.600 C 379.020 291.600,379.200 291.330,379.200 291.000 C 379.200 290.670,379.380 290.400,379.600 290.400 C 379.820 290.400,380.000 290.040,380.000 289.600 C 380.000 289.160,380.180 288.800,380.400 288.800 C 380.620 288.800,380.800 288.440,380.800 288.000 C 380.800 287.560,380.980 287.200,381.200 287.200 C 381.420 287.200,381.600 286.660,381.600 286.000 C 381.600 285.340,381.780 284.800,382.000 284.800 C 382.220 284.800,382.400 284.440,382.400 284.000 C 382.400 283.560,382.580 283.200,382.800 283.200 C 383.020 283.200,383.200 282.840,383.200 282.400 C 383.200 281.960,383.380 281.600,383.600 281.600 C 383.820 281.600,384.000 281.240,384.000 280.800 C 384.000 280.360,384.180 280.000,384.400 280.000 C 384.620 280.000,384.800 279.640,384.800 279.200 C 384.800 278.760,384.980 278.400,385.200 278.400 C 385.420 278.400,385.600 277.860,385.600 277.200 C 385.600 276.540,385.780 276.000,386.000 276.000 C 386.220 276.000,386.400 275.550,386.400 275.000 C 386.400 274.450,386.580 274.000,386.800 274.000 C 387.020 274.000,387.200 273.640,387.200 273.200 C 387.200 272.760,387.380 272.400,387.600 272.400 C 387.820 272.400,388.000 271.860,388.000 271.200 C 388.000 270.540,388.180 270.000,388.400 270.000 C 388.620 270.000,388.800 269.640,388.800 269.200 C 388.800 268.760,388.980 268.400,389.200 268.400 C 389.420 268.400,389.600 267.860,389.600 267.200 C 389.600 266.540,389.780 266.000,390.000 266.000 C 390.220 266.000,390.400 265.460,390.400 264.800 C 390.400 264.140,390.562 263.600,390.761 263.600 C 390.959 263.600,391.247 262.520,391.400 261.200 C 391.553 259.880,391.841 258.800,392.039 258.800 C 392.238 258.800,392.400 258.170,392.400 257.400 C 392.400 256.630,392.580 256.000,392.800 256.000 C 393.020 256.000,393.200 255.460,393.200 254.800 C 393.200 254.140,393.380 253.600,393.600 253.600 C 393.820 253.600,394.000 252.880,394.000 252.000 C 394.000 251.120,394.180 250.400,394.400 250.400 C 394.620 250.400,394.800 249.680,394.800 248.800 C 394.800 247.920,394.980 247.200,395.200 247.200 C 395.420 247.200,395.600 246.300,395.600 245.200 C 395.600 244.100,395.780 243.200,396.000 243.200 C 396.220 243.200,396.400 242.570,396.400 241.800 C 396.400 241.030,396.580 240.400,396.800 240.400 C 397.022 240.400,397.200 239.333,397.200 238.000 C 397.200 236.667,397.378 235.600,397.600 235.600 C 397.822 235.600,398.000 234.533,398.000 233.200 C 398.000 231.867,398.178 230.800,398.400 230.800 C 398.627 230.800,398.800 229.627,398.800 228.080 C 398.800 226.437,398.998 225.162,399.300 224.860 C 399.689 224.471,399.800 218.897,399.800 199.713 C 399.800 180.352,399.693 175.031,399.300 174.900 C 398.964 174.788,398.800 173.824,398.800 171.967 C 398.800 170.389,398.628 169.200,398.400 169.200 C 398.178 169.200,398.000 168.133,398.000 166.800 C 398.000 165.467,397.822 164.400,397.600 164.400 C 397.377 164.400,397.200 163.325,397.200 161.976 C 397.200 160.463,397.050 159.646,396.800 159.800 C 396.558 159.949,396.400 159.404,396.400 158.424 C 396.400 157.531,396.220 156.800,396.000 156.800 C 395.780 156.800,395.600 155.900,395.600 154.800 C 395.600 153.700,395.420 152.800,395.200 152.800 C 394.980 152.800,394.800 152.080,394.800 151.200 C 394.800 150.320,394.620 149.600,394.400 149.600 C 394.180 149.600,394.000 148.880,394.000 148.000 C 394.000 147.120,393.820 146.400,393.600 146.400 C 393.380 146.400,393.200 145.860,393.200 145.200 C 393.200 144.540,393.020 144.000,392.800 144.000 C 392.580 144.000,392.400 143.370,392.400 142.600 C 392.400 141.830,392.238 141.200,392.039 141.200 C 391.841 141.200,391.553 140.120,391.400 138.800 C 391.247 137.480,390.959 136.400,390.761 136.400 C 390.562 136.400,390.400 135.860,390.400 135.200 C 390.400 134.540,390.220 134.000,390.000 134.000 C 389.780 134.000,389.600 133.460,389.600 132.800 C 389.600 132.140,389.420 131.600,389.200 131.600 C 388.980 131.600,388.800 131.240,388.800 130.800 C 388.800 130.360,388.620 130.000,388.400 130.000 C 388.180 130.000,388.000 129.460,388.000 128.800 C 388.000 128.140,387.820 127.600,387.600 127.600 C 387.380 127.600,387.200 127.229,387.200 126.776 C 387.200 126.323,387.020 126.064,386.800 126.200 C 386.567 126.344,386.400 125.937,386.400 125.224 C 386.400 124.551,386.220 124.000,386.000 124.000 C 385.780 124.000,385.600 123.460,385.600 122.800 C 385.600 122.140,385.420 121.600,385.200 121.600 C 384.980 121.600,384.800 121.240,384.800 120.800 C 384.800 120.360,384.620 120.000,384.400 120.000 C 384.180 120.000,384.000 119.640,384.000 119.200 C 384.000 118.760,383.820 118.400,383.600 118.400 C 383.380 118.400,383.200 118.040,383.200 117.600 C 383.200 117.160,383.020 116.800,382.800 116.800 C 382.580 116.800,382.400 116.440,382.400 116.000 C 382.400 115.560,382.220 115.200,382.000 115.200 C 381.780 115.200,381.600 114.660,381.600 114.000 C 381.600 113.340,381.420 112.800,381.200 112.800 C 380.980 112.800,380.800 112.440,380.800 112.000 C 380.800 111.560,380.620 111.200,380.400 111.200 C 380.180 111.200,380.000 110.840,380.000 110.400 C 380.000 109.960,379.820 109.600,379.600 109.600 C 379.380 109.600,379.200 109.330,379.200 109.000 C 379.200 108.670,379.020 108.400,378.800 108.400 C 378.580 108.400,378.400 108.080,378.400 107.688 C 378.400 107.297,378.040 106.717,377.600 106.400 C 377.160 106.083,376.800 105.503,376.800 105.112 C 376.800 104.720,376.620 104.400,376.400 104.400 C 376.180 104.400,376.000 104.040,376.000 103.600 C 376.000 103.160,375.836 102.800,375.635 102.800 C 375.434 102.800,375.154 102.112,375.012 101.272 C 374.870 100.431,374.404 99.491,373.977 99.183 C 373.550 98.875,373.200 98.303,373.200 97.912 C 373.200 97.520,373.020 97.200,372.800 97.200 C 372.580 97.200,372.400 96.906,372.400 96.547 C 372.400 96.188,372.076 95.603,371.680 95.247 C 371.283 94.891,370.640 93.914,370.249 93.076 C 369.859 92.238,369.283 91.453,368.970 91.333 C 368.656 91.213,368.400 90.813,368.400 90.446 C 368.400 90.078,368.040 89.517,367.600 89.200 C 367.160 88.883,366.800 88.343,366.800 88.000 C 366.800 87.657,366.440 87.117,366.000 86.800 C 365.560 86.483,365.200 85.975,365.200 85.672 C 365.200 85.369,364.660 84.617,364.000 84.000 C 363.340 83.383,362.800 82.631,362.800 82.328 C 362.800 82.025,362.440 81.517,362.000 81.200 C 361.560 80.883,361.200 80.387,361.200 80.098 C 361.200 79.810,360.570 78.943,359.800 78.173 C 359.030 77.403,358.400 76.585,358.400 76.355 C 358.400 76.125,357.680 75.246,356.800 74.400 C 355.920 73.554,355.200 72.659,355.200 72.409 C 355.200 72.160,354.120 70.896,352.800 69.600 C 351.480 68.304,350.400 67.042,350.400 66.794 C 350.400 66.547,348.555 64.559,346.300 62.376 C 344.045 60.194,342.071 58.271,341.913 58.104 C 338.019 53.981,333.526 49.600,333.192 49.600 C 332.952 49.600,331.696 48.520,330.400 47.200 C 329.104 45.880,327.820 44.800,327.545 44.800 C 327.271 44.800,326.384 44.089,325.573 43.220 C 324.763 42.351,323.619 41.520,323.031 41.372 C 322.444 41.225,322.050 41.016,322.157 40.910 C 322.451 40.616,320.514 38.800,319.906 38.800 C 319.615 38.800,319.117 38.440,318.800 38.000 C 318.483 37.560,317.975 37.200,317.672 37.200 C 317.369 37.200,316.617 36.660,316.000 36.000 C 315.383 35.340,314.631 34.800,314.328 34.800 C 314.025 34.800,313.517 34.440,313.200 34.000 C 312.883 33.560,312.343 33.200,312.000 33.200 C 311.657 33.200,311.117 32.840,310.800 32.400 C 310.483 31.960,309.980 31.600,309.683 31.600 C 309.006 31.600,307.953 30.581,308.286 30.248 C 308.422 30.111,308.143 30.000,307.667 30.000 C 307.190 30.000,306.800 29.820,306.800 29.600 C 306.800 29.380,306.480 29.200,306.088 29.200 C 305.697 29.200,305.117 28.840,304.800 28.400 C 304.483 27.960,304.021 27.600,303.773 27.600 C 303.010 27.600,300.752 26.341,300.545 25.800 C 300.437 25.518,300.000 25.379,299.574 25.491 C 299.148 25.602,298.800 25.492,298.800 25.247 C 298.800 25.001,298.440 24.800,298.000 24.800 C 297.560 24.800,297.200 24.620,297.200 24.400 C 297.200 24.180,296.840 24.000,296.400 24.000 C 295.960 24.000,295.600 23.820,295.600 23.600 C 295.600 23.380,295.280 23.200,294.888 23.200 C 294.497 23.200,293.917 22.840,293.600 22.400 C 293.283 21.960,292.703 21.600,292.312 21.600 C 291.920 21.600,291.600 21.420,291.600 21.200 C 291.600 20.980,291.330 20.800,291.000 20.800 C 290.670 20.800,290.400 20.620,290.400 20.400 C 290.400 20.180,290.040 20.000,289.600 20.000 C 289.160 20.000,288.800 19.820,288.800 19.600 C 288.800 19.380,288.440 19.200,288.000 19.200 C 287.560 19.200,287.200 19.020,287.200 18.800 C 287.200 18.580,286.660 18.400,286.000 18.400 C 285.340 18.400,284.800 18.220,284.800 18.000 C 284.800 17.780,284.440 17.600,284.000 17.600 C 283.560 17.600,283.200 17.420,283.200 17.200 C 283.200 16.980,282.840 16.800,282.400 16.800 C 281.960 16.800,281.600 16.620,281.600 16.400 C 281.600 16.180,281.240 16.000,280.800 16.000 C 280.360 16.000,280.000 15.820,280.000 15.600 C 280.000 15.380,279.640 15.200,279.200 15.200 C 278.760 15.200,278.400 15.020,278.400 14.800 C 278.400 14.580,277.860 14.400,277.200 14.400 C 276.540 14.400,276.000 14.220,276.000 14.000 C 276.000 13.780,275.550 13.600,275.000 13.600 C 274.450 13.600,274.000 13.420,274.000 13.200 C 274.000 12.980,273.640 12.800,273.200 12.800 C 272.760 12.800,272.400 12.620,272.400 12.400 C 272.400 12.180,271.860 12.000,271.200 12.000 C 270.540 12.000,270.000 11.820,270.000 11.600 C 270.000 11.380,269.640 11.200,269.200 11.200 C 268.760 11.200,268.400 11.020,268.400 10.800 C 268.400 10.580,267.995 10.397,267.500 10.394 C 266.604 10.388,264.183 9.640,263.377 9.121 C 263.144 8.971,262.019 8.724,260.877 8.572 C 259.735 8.421,258.800 8.140,258.800 7.948 C 258.800 7.757,258.170 7.600,257.400 7.600 C 256.630 7.600,256.000 7.420,256.000 7.200 C 256.000 6.980,255.460 6.800,254.800 6.800 C 254.140 6.800,253.600 6.620,253.600 6.400 C 253.600 6.180,252.880 6.000,252.000 6.000 C 251.120 6.000,250.400 5.820,250.400 5.600 C 250.400 5.380,249.680 5.200,248.800 5.200 C 247.920 5.200,247.200 5.020,247.200 4.800 C 247.200 4.580,246.300 4.400,245.200 4.400 C 244.100 4.400,243.200 4.220,243.200 4.000 C 243.200 3.780,242.570 3.600,241.800 3.600 C 241.030 3.600,240.400 3.420,240.400 3.200 C 240.400 2.978,239.333 2.800,238.000 2.800 C 236.667 2.800,235.600 2.622,235.600 2.400 C 235.600 2.178,234.533 2.000,233.200 2.000 C 231.867 2.000,230.800 1.822,230.800 1.600 C 230.800 1.372,229.611 1.200,228.033 1.200 C 226.238 1.200,225.211 1.032,225.107 0.720 C 224.948 0.244,188.291 -0.109,178.700 0.273 M200.400 84.400 C 200.400 84.622,201.467 84.800,202.800 84.800 C 204.133 84.800,205.200 84.978,205.200 85.200 C 205.200 85.420,205.740 85.600,206.400 85.600 C 207.060 85.600,207.600 85.780,207.600 86.000 C 207.600 86.220,207.971 86.400,208.424 86.400 C 208.877 86.400,209.136 86.580,209.000 86.800 C 208.864 87.020,209.037 87.200,209.385 87.200 C 209.733 87.200,210.976 88.145,212.148 89.300 C 213.320 90.455,214.666 91.665,215.139 91.988 C 215.613 92.312,216.000 92.857,216.000 93.200 C 216.000 93.543,216.360 94.083,216.800 94.400 C 217.240 94.717,217.600 95.297,217.600 95.688 C 217.600 96.080,217.780 96.400,218.000 96.400 C 218.220 96.400,218.400 96.940,218.400 97.600 C 218.400 98.260,218.580 98.800,218.800 98.800 C 219.029 98.800,219.200 100.000,219.200 101.600 C 219.200 103.200,219.371 104.400,219.600 104.400 C 219.865 104.400,220.000 122.333,220.000 157.400 C 220.000 192.467,219.865 210.400,219.600 210.400 C 219.378 210.400,219.200 211.467,219.200 212.800 C 219.200 214.133,219.022 215.200,218.800 215.200 C 218.580 215.200,218.400 215.740,218.400 216.400 C 218.400 217.060,218.220 217.600,218.000 217.600 C 217.780 217.600,217.600 217.960,217.600 218.400 C 217.600 218.840,217.420 219.200,217.200 219.200 C 216.980 219.200,216.800 219.560,216.800 220.000 C 216.800 220.440,216.620 220.800,216.400 220.800 C 216.180 220.800,216.000 221.082,216.000 221.426 C 216.000 221.770,215.107 222.895,214.015 223.926 C 211.208 226.577,210.912 226.800,210.193 226.800 C 209.841 226.800,209.664 226.980,209.800 227.200 C 209.936 227.420,209.677 227.600,209.224 227.600 C 208.771 227.600,208.400 227.780,208.400 228.000 C 208.400 228.220,208.040 228.400,207.600 228.400 C 207.160 228.400,206.800 228.580,206.800 228.800 C 206.800 229.020,206.260 229.200,205.600 229.200 C 204.940 229.200,204.400 229.380,204.400 229.600 C 204.400 229.842,202.667 230.000,200.000 230.000 C 197.333 230.000,195.600 229.842,195.600 229.600 C 195.600 229.380,195.060 229.200,194.400 229.200 C 193.740 229.200,193.200 229.020,193.200 228.800 C 193.200 228.580,192.840 228.400,192.400 228.400 C 191.960 228.400,191.600 228.220,191.600 228.000 C 191.600 227.780,191.330 227.600,191.000 227.600 C 190.670 227.600,190.400 227.420,190.400 227.200 C 190.400 226.980,190.122 226.800,189.783 226.800 C 189.089 226.800,188.782 226.567,185.985 223.926 C 184.893 222.895,184.000 221.770,184.000 221.426 C 184.000 221.082,183.820 220.800,183.600 220.800 C 183.380 220.800,183.200 220.440,183.200 220.000 C 183.200 219.560,183.020 219.200,182.800 219.200 C 182.580 219.200,182.400 218.840,182.400 218.400 C 182.400 217.960,182.220 217.600,182.000 217.600 C 181.780 217.600,181.600 217.060,181.600 216.400 C 181.600 215.740,181.420 215.200,181.200 215.200 C 180.978 215.200,180.800 214.133,180.800 212.800 C 180.800 211.467,180.622 210.400,180.400 210.400 C 180.135 210.400,180.000 192.467,180.000 157.400 C 180.000 122.333,180.135 104.400,180.400 104.400 C 180.629 104.400,180.800 103.200,180.800 101.600 C 180.800 100.000,180.971 98.800,181.200 98.800 C 181.420 98.800,181.600 98.260,181.600 97.600 C 181.600 96.940,181.780 96.400,182.000 96.400 C 182.220 96.400,182.400 96.080,182.400 95.688 C 182.400 95.297,182.760 94.717,183.200 94.400 C 183.640 94.083,184.000 93.569,184.000 93.259 C 184.000 92.658,185.477 91.200,186.085 91.200 C 186.284 91.200,186.336 91.020,186.200 90.800 C 186.064 90.580,186.158 90.400,186.408 90.400 C 186.658 90.400,187.554 89.680,188.400 88.800 C 189.246 87.920,190.221 87.200,190.569 87.200 C 190.916 87.200,191.200 87.020,191.200 86.800 C 191.200 86.580,191.470 86.400,191.800 86.400 C 192.130 86.400,192.400 86.220,192.400 86.000 C 192.400 85.780,192.940 85.600,193.600 85.600 C 194.260 85.600,194.800 85.420,194.800 85.200 C 194.800 84.978,195.867 84.800,197.200 84.800 C 198.533 84.800,199.600 84.622,199.600 84.400 C 199.600 84.180,199.780 84.000,200.000 84.000 C 200.220 84.000,200.400 84.180,200.400 84.400 M204.400 275.600 C 204.400 275.820,204.940 276.000,205.600 276.000 C 206.260 276.000,206.800 276.180,206.800 276.400 C 206.800 276.620,207.160 276.800,207.600 276.800 C 208.040 276.800,208.400 276.980,208.400 277.200 C 208.400 277.420,208.670 277.600,209.000 277.600 C 209.330 277.600,209.600 277.780,209.600 278.000 C 209.600 278.220,209.873 278.400,210.207 278.400 C 210.999 278.400,216.000 283.401,216.000 284.193 C 216.000 284.527,216.180 284.800,216.400 284.800 C 216.620 284.800,216.800 285.160,216.800 285.600 C 216.800 286.040,216.980 286.400,217.200 286.400 C 217.420 286.400,217.600 286.760,217.600 287.200 C 217.600 287.640,217.780 288.000,218.000 288.000 C 218.220 288.000,218.400 288.540,218.400 289.200 C 218.400 289.860,218.580 290.400,218.800 290.400 C 219.043 290.400,219.200 292.200,219.200 295.000 C 219.200 297.800,219.043 299.600,218.800 299.600 C 218.580 299.600,218.400 300.140,218.400 300.800 C 218.400 301.460,218.220 302.000,218.000 302.000 C 217.780 302.000,217.600 302.360,217.600 302.800 C 217.600 303.240,217.420 303.600,217.200 303.600 C 216.980 303.600,216.800 303.884,216.800 304.231 C 216.800 304.579,216.080 305.554,215.200 306.400 C 214.320 307.246,213.600 308.131,213.600 308.369 C 213.600 308.750,213.353 308.849,212.579 308.780 C 212.457 308.769,211.845 309.309,211.218 309.980 C 210.592 310.651,209.881 311.200,209.640 311.200 C 209.398 311.200,209.200 311.380,209.200 311.600 C 209.200 311.820,208.840 312.000,208.400 312.000 C 207.960 312.000,207.600 312.180,207.600 312.400 C 207.600 312.620,207.060 312.800,206.400 312.800 C 205.740 312.800,205.200 312.980,205.200 313.200 C 205.200 313.420,204.300 313.600,203.200 313.600 C 202.100 313.600,201.200 313.780,201.200 314.000 C 201.200 314.220,200.660 314.400,200.000 314.400 C 199.340 314.400,198.800 314.220,198.800 314.000 C 198.800 313.780,197.900 313.600,196.800 313.600 C 195.700 313.600,194.800 313.420,194.800 313.200 C 194.800 312.980,194.260 312.800,193.600 312.800 C 192.940 312.800,192.400 312.664,192.400 312.498 C 192.400 312.331,191.815 311.938,191.100 311.625 C 190.385 311.311,189.314 310.538,188.721 309.907 C 188.128 309.277,187.543 308.769,187.421 308.780 C 186.647 308.849,186.400 308.750,186.400 308.369 C 186.400 308.131,185.680 307.246,184.800 306.400 C 183.920 305.554,183.200 304.579,183.200 304.231 C 183.200 303.884,183.020 303.600,182.800 303.600 C 182.580 303.600,182.400 303.240,182.400 302.800 C 182.400 302.360,182.220 302.000,182.000 302.000 C 181.780 302.000,181.600 301.460,181.600 300.800 C 181.600 300.140,181.420 299.600,181.200 299.600 C 180.957 299.600,180.800 297.800,180.800 295.000 C 180.800 292.200,180.957 290.400,181.200 290.400 C 181.420 290.400,181.600 289.860,181.600 289.200 C 181.600 288.540,181.780 288.000,182.000 288.000 C 182.220 288.000,182.400 287.640,182.400 287.200 C 182.400 286.760,182.580 286.400,182.800 286.400 C 183.020 286.400,183.200 286.040,183.200 285.600 C 183.200 285.160,183.380 284.800,183.600 284.800 C 183.820 284.800,184.000 284.527,184.000 284.193 C 184.000 283.401,189.001 278.400,189.793 278.400 C 190.127 278.400,190.400 278.220,190.400 278.000 C 190.400 277.780,190.670 277.600,191.000 277.600 C 191.330 277.600,191.600 277.420,191.600 277.200 C 191.600 276.980,191.960 276.800,192.400 276.800 C 192.840 276.800,193.200 276.620,193.200 276.400 C 193.200 276.180,193.740 276.000,194.400 276.000 C 195.060 276.000,195.600 275.820,195.600 275.600 C 195.600 275.358,197.333 275.200,200.000 275.200 C 202.667 275.200,204.400 275.358,204.400 275.600 " stroke="none" fill="#4c6cd4" fill-rule="evenodd"></path><path id="path1" d="" stroke="none" fill="#506cd4" fill-rule="evenodd"></path><path id="path2" d="" stroke="none" fill="#506cd4" fill-rule="evenodd"></path><path id="path3" d="" stroke="none" fill="#506cd4" fill-rule="evenodd"></path><path id="path4" d="" stroke="none" fill="#506cd4" fill-rule="evenodd"></path></g></svg>