<svg width="302" height="422" viewBox="0 0 302 422" fill="none" xmlns="http://www.w3.org/2000/svg">
<path fill-rule="evenodd" clip-rule="evenodd" d="M151.217 252.582C122.426 252.582 95.3811 241.636 75.0165 221.766C7.17738 155.485 55.8802 42.097 151.217 42.097C246.489 42.097 295.321 155.422 227.417 221.766C207.053 241.636 180.008 252.582 151.217 252.582ZM257.587 251.528C352.946 158.389 284.245 0 151.152 0C18.3618 0 -51.1367 158.389 44.2432 251.528C68.1852 274.913 107.514 288.637 129.064 292.994V337.806H64.4139V379.903H129.064V422H172.163V379.903H236.813V337.806H172.163V292.994C215.263 288.637 233.624 274.913 257.587 251.528Z" fill="#404040"/>
</svg>
