<svg width="427" height="427" viewBox="0 0 427 427" fill="none" xmlns="http://www.w3.org/2000/svg">
<path d="M165.705 426.667C74.334 426.667 0 352.333 0 260.962C0 169.596 74.334 95.262 165.705 95.262C257.071 95.262 331.405 169.596 331.405 260.962C331.405 352.333 257.071 426.667 165.705 426.667ZM165.705 157.235C108.506 157.235 61.97 203.767 61.97 260.966C61.97 318.165 108.502 364.701 165.705 364.701C222.9 364.701 269.44 318.169 269.44 260.966C269.436 203.767 222.899 157.235 165.705 157.235Z" fill="#404040"/>
<path d="M426.667 165.705H364.698V61.969H260.962V0H426.667V165.705Z" fill="#404040"/>
<path d="M239.044 143.803L282.862 187.621L417.577 52.9056L373.76 9.088L239.044 143.803Z" fill="#404040"/>
</svg>
